SplineFontDB: 3.2
FontName: myConkySymbols
FullName: myConky Symbols
FamilyName: myConkySymbols
Weight: Regular
Copyright: GPL
Version: 1.0
ItalicAngle: 0
UnderlinePosition: 0
UnderlineWidth: 0
Ascent: 819
Descent: 205
InvalidEm: 0
LayerCount: 2
Layer: 0 0 "Back" 1
Layer: 1 0 "Fore" 0
FSType: 8
OS2Version: 0
OS2_WeightWidthSlopeOnly: 0
OS2_UseTypoMetrics: 0
CreationTime: 1724133518
ModificationTime: 1724256096
OS2TypoAscent: 0
OS2TypoAOffset: 1
OS2TypoDescent: 0
OS2TypoDOffset: 1
OS2TypoLinegap: 0
OS2WinAscent: 0
OS2WinAOffset: 1
OS2WinDescent: 0
OS2WinDOffset: 1
HheadAscent: 0
HheadAOffset: 1
HheadDescent: 0
HheadDOffset: 1
OS2Vendor: 'PfEd'
DEI: 91125
Encoding: Custom
UnicodeInterp: none
NameList: AGL For New Fonts
DisplaySize: -48
AntiAlias: 1
FitToEm: 0
WinInfo: 0 38 13
BeginPrivate: 5
StdHW 4 [18]
StemSnapH 5 [18 ]
BlueValues 16 [-50 2 749 769 ]
BlueShift 2 14
BlueScale 9 0.0208333
EndPrivate
BeginChars: 261 61

StartChar: uniF0FE
Encoding: 0 61694 2
Width: 1024
Flags: W
LayerCount: 2
Fore
SplineSet
0 0 m 1
 1000 0 l 1
 1000 1024 l 1
 0 1024 l 1
 0 0 l 1
EndSplineSet
EndChar

StartChar: B
Encoding: 66 66 3
Width: 1024
Flags: W
LayerCount: 2
Fore
SplineSet
925 302 m 0
 925 314 916 320 899 320 c 2
 355 320 l 2
 341 320 327 316 312 309 c 0
 297 302 285 293 276 283 c 2
 129 102 l 2
 123 94 120 87 120 82 c 0
 120 70 129 64 147 64 c 2
 691 64 l 2
 704 64 718 68 734 75 c 0
 749 82 761 91 769 102 c 2
 916 283 l 2
 922 290 925 297 925 302 c 0
355 384 m 2
 739 384 l 1
 739 464 l 2
 739 477 734 489 725 498 c 0
 715 507 704 512 691 512 c 2
 403 512 l 2
 389 512 378 517 369 526 c 0
 359 535 355 547 355 560 c 2
 355 592 l 2
 355 605 350 617 341 626 c 0
 331 635 320 640 307 640 c 2
 147 640 l 2
 133 640 122 635 113 626 c 0
 103 617 99 605 99 592 c 2
 99 166 l 1
 227 323 l 2
 241 341 261 355 285 367 c 0
 309 378 332 384 355 384 c 2
989 302 m 0
 989 282 982 262 966 242 c 2
 819 61 l 2
 804 43 785 29 761 17 c 0
 736 6 713 0 691 0 c 2
 147 0 l 2
 116 0 90 11 68 33 c 0
 46 55 35 81 35 112 c 2
 35 592 l 2
 35 623 46 649 68 671 c 0
 90 693 116 704 147 704 c 2
 307 704 l 2
 337 704 364 693 386 671 c 0
 408 649 419 623 419 592 c 2
 419 576 l 1
 691 576 l 2
 721 576 748 565 770 543 c 0
 792 521 803 495 803 464 c 2
 803 384 l 1
 899 384 l 2
 917 384 933 380 948 372 c 0
 963 364 974 352 982 336 c 0
 987 326 989 314 989 302 c 0
EndSplineSet
EndChar

StartChar: F
Encoding: 70 70 4
Width: 1024
Flags: W
LayerCount: 2
Fore
SplineSet
515 -50 m 0
 421 -50 337 -24 263 26 c 0
 189 76 134 142 98 225 c 0
 79 269 68 319 65 376 c 0
 62 432 66 488 78 542 c 0
 90 596 108 648 133 698 c 0
 159 748 189 788 223 819 c 1
 217 678 l 1
 221 683 232 686 251 686 c 0
 270 687 282 684 286 678 c 1
 300 706 327 728 367 748 c 0
 406 766 445 776 484 777 c 1
 466 762 446 737 424 703 c 0
 402 668 393 641 395 621 c 1
 403 618 414 616 426 614 c 0
 439 612 449 611 458 610 c 0
 466 610 478 609 492 608 c 0
 506 608 514 607 517 607 c 0
 522 605 524 598 522 584 c 0
 520 571 515 558 506 546 c 0
 505 544 502 541 498 537 c 0
 494 533 485 528 470 520 c 0
 455 512 438 506 419 502 c 1
 427 408 l 1
 357 442 l 1
 351 427 350 414 354 401 c 0
 357 388 363 377 372 368 c 0
 380 358 391 351 404 347 c 0
 418 342 431 341 445 344 c 0
 462 346 478 352 494 361 c 0
 510 369 524 377 536 383 c 0
 548 390 560 393 572 392 c 0
 593 391 608 385 617 376 c 0
 627 366 630 355 627 343 c 0
 627 342 626 341 626 340 c 0
 625 339 624 337 621 334 c 0
 619 331 616 328 612 326 c 0
 609 324 604 322 597 321 c 0
 590 320 582 320 573 320 c 1
 553 289 529 266 501 253 c 0
 473 239 438 234 396 238 c 1
 421 218 448 204 478 197 c 0
 507 190 535 189 562 194 c 0
 589 199 614 208 639 220 c 0
 664 232 685 246 703 264 c 0
 721 280 734 298 743 316 c 0
 758 346 764 378 763 412 c 0
 762 446 755 477 744 506 c 0
 733 535 720 556 705 568 c 1
 734 556 757 543 773 529 c 0
 790 515 803 496 812 472 c 1
 817 529 807 586 783 644 c 0
 759 702 724 749 678 786 c 1
 767 760 835 714 884 646 c 0
 933 579 959 492 960 388 c 0
 961 345 954 303 940 260 c 0
 926 217 905 178 878 141 c 0
 851 104 819 72 783 43 c 0
 747 14 706 -8 660 -25 c 0
 613 -41 565 -50 515 -50 c 0
EndSplineSet
EndChar

StartChar: G
Encoding: 71 71 5
Width: 1024
Flags: W
LayerCount: 2
Fore
SplineSet
512 750 m 0
 582 750 646 733 705 698 c 0
 764 664 810 618 844 559 c 0
 879 500 896 436 896 366 c 0
 896 282 872 207 823 140 c 0
 774 73 711 27 634 2 c 0
 624 0 618 1 614 5 c 0
 609 9 607 14 607 20 c 2
 607 58 l 2
 607 83 608 105 608 126 c 0
 608 158 599 182 582 196 c 1
 600 198 618 202 633 206 c 0
 648 210 664 216 680 225 c 0
 696 234 709 245 720 258 c 0
 731 271 740 289 747 311 c 0
 754 333 757 358 757 386 c 0
 757 426 744 460 718 489 c 1
 730 519 728 553 714 591 c 1
 704 594 691 592 673 586 c 0
 655 579 640 572 627 564 c 2
 608 552 l 1
 577 560 545 564 512 564 c 0
 479 564 447 560 416 552 c 1
 411 555 404 560 395 565 c 0
 386 570 372 577 353 584 c 0
 334 592 320 594 310 591 c 1
 296 553 294 519 306 489 c 1
 280 460 267 426 267 386 c 0
 267 358 270 333 277 311 c 0
 284 289 293 272 304 258 c 0
 314 245 328 234 344 225 c 0
 360 216 376 210 391 206 c 0
 406 202 423 198 442 196 c 1
 429 184 421 167 418 145 c 1
 410 142 403 139 395 138 c 0
 387 136 378 135 366 135 c 0
 356 135 345 139 334 146 c 0
 323 153 314 163 306 177 c 0
 300 188 292 196 282 203 c 0
 272 210 264 214 257 215 c 2
 247 216 l 2
 240 216 235 216 232 214 c 0
 230 213 229 211 230 208 c 0
 231 206 232 204 234 202 c 0
 236 199 239 197 241 196 c 2
 244 193 l 2
 252 190 259 183 266 174 c 0
 273 165 279 156 282 148 c 2
 287 137 l 2
 291 124 299 114 309 106 c 0
 319 98 330 93 342 91 c 0
 354 89 366 88 377 88 c 0
 388 88 398 88 405 90 c 2
 416 92 l 1
 416 79 417 64 417 47 c 2
 417 20 l 2
 417 14 415 9 410 5 c 0
 406 1 400 0 390 2 c 0
 313 27 250 73 201 140 c 0
 152 207 128 282 128 366 c 0
 128 436 145 500 180 559 c 0
 214 618 260 664 319 698 c 0
 378 733 442 750 512 750 c 0
274 198 m 0
 272 196 270 196 267 198 c 0
 264 199 262 201 264 204 c 0
 264 205 267 206 270 204 c 0
 273 203 274 201 274 198 c 0
289 182 m 0
 287 179 284 180 281 183 c 0
 278 187 278 189 280 191 c 0
 282 193 285 192 288 190 c 0
 291 186 291 183 289 182 c 0
304 159 m 0
 301 157 298 158 296 162 c 0
 292 167 292 170 296 172 c 0
 298 174 301 173 304 168 c 0
 307 164 307 161 304 159 c 0
325 138 m 0
 322 135 319 136 315 140 c 0
 311 143 310 146 313 149 c 0
 316 152 319 152 323 148 c 0
 327 144 328 141 325 138 c 0
354 126 m 0
 352 122 349 120 344 122 c 0
 338 124 336 126 338 130 c 0
 339 134 342 135 347 134 c 0
 352 132 354 129 354 126 c 0
385 123 m 0
 385 119 382 118 377 118 c 0
 371 117 368 119 368 123 c 0
 368 127 371 128 376 128 c 0
 382 129 385 127 385 123 c 0
414 128 m 0
 415 125 412 122 407 121 c 0
 402 120 399 121 398 125 c 0
 397 129 400 132 405 132 c 0
 410 133 413 132 414 128 c 0
EndSplineSet
EndChar

StartChar: H
Encoding: 72 72 6
Width: 1024
Flags: W
LayerCount: 2
Fore
SplineSet
896 384 m 0
 896 332 886 282 866 235 c 0
 845 188 818 147 784 112 c 0
 749 78 708 51 661 30 c 0
 614 10 564 0 512 0 c 0
 455 0 400 12 348 36 c 0
 297 60 253 94 216 138 c 0
 214 142 213 146 213 150 c 0
 213 154 215 157 218 160 c 2
 286 229 l 2
 289 232 294 234 298 234 c 0
 304 233 308 231 310 228 c 0
 334 196 364 171 400 154 c 0
 435 137 472 128 512 128 c 0
 547 128 580 135 611 148 c 0
 643 162 670 180 693 203 c 0
 716 226 734 253 748 285 c 0
 761 316 768 349 768 384 c 0
 768 419 761 452 748 483 c 0
 734 515 716 542 693 565 c 0
 670 588 643 606 611 620 c 0
 580 633 547 640 512 640 c 0
 479 640 448 634 418 622 c 0
 388 610 361 594 338 572 c 1
 406 502 l 2
 417 492 419 481 414 468 c 0
 408 455 398 448 384 448 c 2
 160 448 l 2
 151 448 144 451 138 458 c 0
 131 464 128 471 128 480 c 2
 128 704 l 2
 128 718 135 728 148 734 c 0
 161 739 172 737 182 726 c 2
 248 662 l 1
 283 696 324 722 370 740 c 0
 416 759 463 768 512 768 c 0
 564 768 614 758 661 738 c 0
 708 717 749 690 784 656 c 0
 818 621 845 580 866 533 c 0
 886 486 896 436 896 384 c 0
EndSplineSet
EndChar

StartChar: L
Encoding: 76 76 7
Width: 1024
Flags: W
LayerCount: 2
Fore
SplineSet
459 613 m 1
 456 613 453 611 452 608 c 0
 450 605 449 603 447 603 c 0
 446 603 445 604 445 606 c 0
 445 610 448 612 454 613 c 2
 459 613 l 1
503 606 m 0
 502 606 500 607 497 610 c 0
 495 612 492 613 488 612 c 1
 496 616 502 615 504 611 c 0
 505 609 505 607 503 606 c 0
327 393 m 0
 326 393 325 393 324 391 c 0
 324 390 323 388 322 385 c 0
 321 382 320 380 319 378 c 0
 318 377 317 375 314 372 c 0
 311 368 311 366 314 366 c 0
 315 366 317 367 320 369 c 0
 323 372 325 375 326 378 c 0
 327 379 327 381 327 382 c 0
 328 383 328 384 328 385 c 0
 329 386 329 386 329 387 c 2
 329 389 l 1
 329 391 l 1
 329 392 l 2
 329 393 328 393 327 393 c 0
755 213 m 1
 755 219 746 226 727 234 c 1
 729 239 730 244 731 248 c 0
 732 252 733 257 734 261 c 0
 734 266 735 269 735 272 c 0
 736 275 736 278 735 283 c 2
 735 293 l 2
 735 295 734 298 733 304 c 0
 732 310 731 313 731 314 c 0
 731 315 730 320 729 327 c 0
 727 334 726 338 726 340 c 0
 723 356 715 373 702 391 c 0
 690 410 678 422 666 429 c 1
 674 422 684 408 695 387 c 0
 724 333 733 287 722 248 c 0
 718 235 710 228 697 227 c 0
 687 226 680 229 678 237 c 0
 675 244 674 258 674 278 c 0
 673 299 672 317 668 332 c 0
 665 345 662 356 658 366 c 0
 655 376 651 384 648 389 c 0
 645 394 643 398 641 401 c 0
 638 404 636 407 634 409 c 0
 632 411 631 412 630 412 c 0
 626 433 621 450 615 464 c 0
 609 478 604 487 600 492 c 0
 596 497 592 502 588 508 c 0
 585 514 582 521 581 528 c 0
 580 535 581 544 584 555 c 0
 587 566 588 574 586 580 c 0
 584 586 577 590 564 592 c 0
 559 593 551 596 542 601 c 0
 532 606 526 609 524 609 c 0
 521 610 519 614 518 622 c 0
 517 631 519 639 522 648 c 0
 526 657 532 661 540 661 c 0
 553 662 561 657 566 646 c 0
 571 635 571 626 568 617 c 0
 564 611 564 607 567 604 c 0
 570 602 575 602 582 604 c 0
 586 605 588 611 588 622 c 2
 588 640 l 2
 587 650 584 659 582 665 c 0
 579 672 575 677 571 681 c 0
 567 684 563 687 559 688 c 0
 556 690 551 691 546 692 c 0
 510 689 495 667 501 625 c 1
 501 617 l 1
 498 620 493 622 486 623 c 0
 479 623 474 623 470 622 c 0
 465 622 463 623 462 625 c 0
 462 644 460 659 454 670 c 0
 448 681 441 687 431 687 c 0
 422 687 415 683 411 673 c 0
 406 664 403 654 402 643 c 0
 402 638 403 632 404 625 c 0
 406 618 408 611 411 606 c 0
 413 601 416 599 418 599 c 0
 422 600 424 603 426 606 c 0
 428 609 427 611 423 610 c 0
 421 610 418 613 415 618 c 0
 412 623 411 628 410 634 c 0
 410 642 412 648 415 653 c 0
 418 658 424 660 432 660 c 0
 438 660 442 656 445 649 c 0
 449 642 450 636 450 630 c 0
 450 624 450 620 449 619 c 0
 442 614 437 609 434 604 c 0
 431 600 427 597 420 593 c 0
 414 589 410 587 410 586 c 0
 406 582 403 577 402 573 c 0
 401 569 403 566 406 564 c 0
 411 561 415 558 418 554 c 0
 422 550 425 547 426 545 c 0
 428 542 431 540 436 538 c 0
 440 536 446 535 453 535 c 0
 469 534 486 537 504 542 c 0
 505 543 509 544 516 546 c 0
 523 548 529 550 533 551 c 0
 538 553 543 555 548 558 c 0
 553 561 557 563 558 566 c 0
 561 571 565 572 568 570 c 0
 570 569 571 568 572 566 c 0
 572 564 572 562 570 560 c 0
 569 558 566 556 562 555 c 0
 555 553 546 550 534 545 c 0
 521 540 514 536 511 535 c 0
 496 529 485 525 476 523 c 0
 468 522 454 522 436 524 c 0
 433 525 432 525 432 523 c 0
 432 522 435 519 440 514 c 0
 449 506 460 503 474 503 c 0
 480 503 486 504 492 506 c 0
 498 508 504 511 510 513 c 0
 516 516 521 519 527 522 c 2
 542 531 l 1
 554 537 l 2
 558 538 560 539 563 538 c 0
 565 537 566 535 567 532 c 2
 567 532 567 531 566 530 c 0
 566 529 565 529 564 528 c 2
 561 525 l 2
 560 525 559 524 557 523 c 0
 555 522 554 521 553 521 c 0
 551 520 550 519 548 518 c 0
 545 517 544 516 543 516 c 0
 534 511 522 504 509 494 c 0
 496 484 485 477 476 472 c 0
 467 468 459 468 451 472 c 0
 444 476 434 488 420 508 c 0
 413 519 408 522 407 519 c 2
 407 514 l 2
 407 506 404 497 399 486 c 2
 385 458 l 2
 380 450 376 441 374 429 c 0
 372 418 374 408 380 398 c 1
 372 396 362 381 349 353 c 0
 335 325 328 301 325 282 c 0
 324 276 324 265 324 248 c 0
 324 231 323 221 321 218 c 0
 319 210 314 210 307 217 c 0
 296 227 290 243 289 264 c 0
 288 273 289 283 291 292 c 0
 292 298 292 301 290 301 c 2
 290 301 289 300 288 298 c 0
 276 277 278 249 293 215 c 0
 295 211 299 207 306 201 c 0
 313 196 317 193 318 191 c 0
 325 184 342 169 370 146 c 0
 398 124 413 111 416 108 c 0
 422 103 425 97 425 89 c 0
 426 81 423 74 418 67 c 0
 413 61 405 57 395 56 c 1
 398 51 403 44 410 34 c 0
 417 24 422 15 424 7 c 0
 426 -1 427 -13 427 -29 c 1
 443 -21 444 -5 431 17 c 0
 430 20 428 23 426 25 c 0
 423 28 422 30 421 31 c 0
 420 33 420 34 420 34 c 2
 421 36 423 38 426 39 c 0
 430 41 433 40 436 38 c 0
 452 21 479 15 519 20 c 0
 564 25 593 39 608 63 c 0
 616 76 621 81 625 78 c 0
 629 76 631 68 630 52 c 0
 630 44 626 29 618 6 c 0
 615 -1 614 -7 615 -12 c 0
 616 -17 620 -20 627 -20 c 1
 628 -14 631 -1 635 18 c 0
 638 38 641 53 641 63 c 0
 642 70 641 83 638 100 c 0
 635 118 634 134 634 149 c 0
 635 164 639 175 646 184 c 0
 651 190 659 193 671 193 c 1
 672 205 677 214 689 219 c 0
 700 225 712 227 725 225 c 0
 738 223 748 219 755 213 c 1
441 627 m 0
 442 633 441 638 440 642 c 0
 438 646 436 649 434 649 c 0
 431 650 429 649 429 646 c 0
 430 644 431 643 432 643 c 0
 435 643 436 640 435 635 c 0
 434 629 436 625 439 625 c 0
 440 625 441 626 441 627 c 0
650 528 m 0
 650 531 649 533 647 534 c 0
 646 535 643 536 641 537 c 0
 638 537 635 538 633 539 c 2
 629 543 l 1
 625 547 l 2
 624 548 623 550 622 551 c 0
 621 552 621 553 620 553 c 2
 620 553 619 553 618 552 c 0
 614 547 615 539 622 530 c 0
 629 521 635 516 641 514 c 0
 644 514 647 515 649 518 c 0
 650 521 651 525 650 528 c 0
561 635 m 2
 561 639 561 642 559 645 c 0
 557 648 555 650 553 651 c 0
 551 652 550 653 549 652 c 0
 547 652 546 652 545 651 c 0
 544 651 544 650 545 649 c 0
 546 649 546 648 547 648 c 0
 552 647 555 641 556 632 c 0
 556 631 558 632 560 633 c 0
 561 634 561 635 561 635 c 2
588 751 m 0
 588 752 588 753 587 754 c 0
 586 755 585 756 583 757 c 0
 580 759 579 760 578 760 c 0
 573 765 569 768 566 768 c 0
 563 768 561 766 560 764 c 0
 559 762 559 760 560 758 c 0
 560 756 560 753 559 751 c 0
 559 750 558 748 556 746 c 0
 555 744 554 743 553 742 c 0
 553 741 554 739 555 737 c 0
 556 736 558 736 559 737 c 2
 564 742 l 2
 567 744 569 745 572 746 c 0
 572 747 574 747 576 747 c 0
 579 747 582 747 584 748 c 0
 586 749 588 750 588 751 c 0
871 81 m 0
 878 77 883 73 886 69 c 0
 890 65 892 61 892 57 c 0
 893 53 892 49 891 45 c 0
 890 42 887 38 883 34 c 0
 879 31 875 28 872 25 c 0
 868 22 863 19 857 15 c 0
 850 12 845 9 841 7 c 2
 825 -1 l 2
 819 -4 814 -6 811 -7 c 0
 799 -13 784 -23 769 -35 c 0
 753 -47 740 -58 731 -67 c 0
 725 -72 714 -76 697 -77 c 0
 680 -78 665 -76 652 -70 c 0
 646 -67 641 -63 638 -58 c 0
 634 -53 631 -49 629 -45 c 0
 628 -41 624 -38 618 -35 c 0
 613 -32 605 -31 595 -31 c 0
 580 -30 559 -30 530 -30 c 0
 524 -30 514 -30 501 -31 c 0
 489 -31 479 -32 472 -32 c 0
 458 -32 444 -35 433 -40 c 0
 421 -44 412 -49 406 -55 c 0
 400 -60 393 -65 384 -69 c 0
 376 -73 367 -75 357 -75 c 0
 348 -74 329 -69 302 -59 c 0
 275 -49 250 -42 229 -38 c 0
 223 -36 214 -35 203 -33 c 0
 193 -31 184 -29 178 -28 c 0
 172 -27 166 -26 159 -24 c 0
 151 -22 146 -19 142 -16 c 0
 138 -13 135 -10 133 -7 c 0
 130 1 131 12 137 27 c 0
 143 41 146 50 146 54 c 0
 146 59 146 66 144 74 c 0
 142 82 141 89 139 95 c 0
 137 101 136 107 137 113 c 0
 137 119 139 124 142 127 c 0
 147 131 156 133 170 134 c 0
 185 135 195 137 200 140 c 0
 210 146 217 152 221 157 c 0
 225 163 227 172 227 183 c 1
 234 159 229 141 211 130 c 0
 201 123 187 121 170 122 c 0
 159 123 151 122 148 117 c 0
 144 112 145 103 151 89 c 0
 152 87 153 84 155 80 c 0
 157 76 158 73 159 71 c 0
 160 69 161 66 161 62 c 0
 162 59 162 55 162 51 c 0
 162 46 159 38 153 27 c 0
 148 16 145 8 146 3 c 0
 147 -3 154 -7 165 -10 c 0
 172 -12 186 -15 207 -19 c 0
 229 -23 245 -27 257 -30 c 0
 265 -32 277 -35 294 -41 c 0
 311 -46 324 -50 335 -52 c 0
 346 -54 355 -55 363 -54 c 0
 377 -52 388 -47 395 -40 c 0
 402 -33 406 -25 407 -16 c 0
 407 -7 406 2 403 13 c 0
 400 24 397 33 393 39 c 0
 390 46 387 52 383 57 c 0
 343 121 315 161 299 178 c 0
 276 203 257 210 242 198 c 0
 239 195 236 198 235 206 c 0
 234 211 234 218 234 225 c 0
 234 235 236 243 239 251 c 0
 242 259 246 266 251 274 c 0
 256 282 260 289 262 295 c 0
 265 302 269 314 275 331 c 0
 281 348 286 361 290 370 c 0
 294 379 299 390 305 401 c 0
 311 412 318 421 324 428 c 0
 361 476 382 508 386 525 c 1
 382 563 380 614 378 680 c 0
 378 710 382 736 390 756 c 0
 399 777 417 794 443 808 c 0
 456 815 474 819 495 819 c 0
 513 819 531 817 548 812 c 0
 566 807 581 800 593 791 c 0
 612 777 627 757 639 731 c 0
 650 704 655 680 653 657 c 0
 652 625 657 590 668 550 c 0
 680 512 702 476 735 441 c 0
 753 421 770 394 785 359 c 0
 799 325 809 293 814 264 c 0
 817 248 818 234 817 222 c 0
 816 210 814 201 811 194 c 0
 808 187 805 184 801 183 c 0
 798 182 794 179 789 173 c 0
 785 168 780 162 776 156 c 0
 771 150 764 144 755 139 c 0
 746 134 736 132 725 132 c 0
 719 132 714 133 709 134 c 0
 705 136 701 138 698 141 c 0
 695 144 693 147 691 149 c 0
 690 151 688 154 685 159 c 0
 683 164 682 167 681 169 c 0
 674 181 667 186 660 184 c 0
 654 182 649 173 646 159 c 0
 643 145 645 129 650 111 c 0
 657 88 657 55 650 13 c 0
 647 -8 650 -25 659 -37 c 0
 669 -49 681 -54 696 -53 c 0
 711 -52 725 -47 738 -36 c 0
 758 -19 773 -8 783 -2 c 0
 793 4 811 11 835 19 c 0
 853 25 865 31 873 37 c 0
 881 43 884 49 883 54 c 0
 881 60 877 65 870 69 c 0
 864 73 855 77 844 80 c 0
 833 84 825 92 820 104 c 0
 814 117 812 129 812 141 c 0
 813 153 815 160 820 164 c 1
 820 154 822 145 824 136 c 0
 826 128 829 121 831 116 c 0
 834 111 837 106 841 102 c 0
 846 97 849 94 852 92 c 0
 855 90 858 88 863 86 c 0
 867 83 870 82 871 81 c 0
EndSplineSet
EndChar

StartChar: M
Encoding: 77 77 8
Width: 1024
Flags: W
LayerCount: 2
Fore
SplineSet
896 81 m 2
 896 465 l 1
 885 453 874 442 862 432 c 0
 772 363 701 307 648 263 c 0
 632 249 618 238 607 230 c 0
 596 222 582 213 564 205 c 0
 546 197 528 193 512 193 c 1
 512 193 l 1
 512 193 l 1
 496 193 478 197 460 205 c 0
 442 213 428 222 417 230 c 0
 406 238 392 249 376 263 c 0
 323 307 252 363 162 432 c 0
 150 442 139 453 128 465 c 1
 128 81 l 2
 128 77 130 73 133 70 c 0
 136 67 140 65 144 65 c 2
 880 65 l 2
 884 65 888 67 891 70 c 0
 894 73 896 77 896 81 c 2
896 606 m 2
 896 612 l 1
 896 619 l 1
 896 625 l 2
 896 630 895 632 894 632 c 0
 893 631 892 633 892 636 c 0
 890 639 889 640 887 640 c 0
 885 639 883 640 880 641 c 2
 144 641 l 2
 140 641 136 639 133 636 c 0
 130 633 128 629 128 625 c 0
 128 569 152 522 202 483 c 0
 266 432 333 380 402 324 c 0
 404 323 410 318 420 310 c 0
 429 302 437 295 442 291 c 0
 448 287 456 281 465 275 c 0
 474 269 482 264 490 262 c 0
 498 258 505 257 512 257 c 1
 512 257 l 1
 512 257 l 1
 519 257 526 258 534 262 c 0
 542 264 550 269 559 275 c 0
 568 281 576 287 582 291 c 0
 587 295 595 302 604 310 c 0
 614 318 620 323 622 324 c 0
 691 380 758 432 822 483 c 0
 840 497 857 517 873 541 c 0
 888 565 896 587 896 606 c 2
960 625 m 2
 960 81 l 2
 960 59 952 40 936 24 c 0
 921 9 902 1 880 1 c 2
 144 1 l 2
 122 1 103 9 88 24 c 0
 72 40 64 59 64 81 c 2
 64 625 l 2
 64 647 72 666 88 682 c 0
 103 697 122 705 144 705 c 2
 880 705 l 2
 902 705 921 697 936 682 c 0
 952 666 960 647 960 625 c 2
EndSplineSet
EndChar

StartChar: N
Encoding: 78 78 9
Width: 1024
Flags: W
LayerCount: 2
Fore
SplineSet
512 -40 m 0
 505 -40 490 -27 466 -3 c 0
 441 22 429 37 429 44 c 0
 429 55 439 64 460 71 c 0
 481 78 498 82 512 82 c 0
 526 82 543 78 564 71 c 0
 585 64 595 55 595 44 c 0
 595 37 583 22 558 -3 c 0
 534 -27 519 -40 512 -40 c 0
647 96 m 0
 646 96 640 100 627 108 c 0
 614 117 597 125 576 134 c 0
 555 142 534 146 512 146 c 0
 490 146 469 142 448 134 c 0
 427 125 410 117 397 108 c 0
 385 100 378 96 377 96 c 0
 371 96 355 108 330 134 c 0
 305 158 292 174 292 180 c 0
 292 184 294 188 298 192 c 0
 324 217 356 237 396 252 c 0
 435 267 474 274 512 274 c 0
 550 274 589 267 628 252 c 0
 668 237 700 217 726 192 c 0
 730 188 732 184 732 180 c 0
 732 174 719 158 694 134 c 0
 669 108 653 96 647 96 c 0
784 232 m 0
 780 232 776 233 772 236 c 0
 727 271 685 297 646 313 c 0
 607 330 563 338 512 338 c 0
 484 338 455 334 427 327 c 0
 398 320 373 311 352 300 c 0
 331 290 312 280 296 270 c 0
 279 259 266 250 256 243 c 0
 246 236 241 232 240 232 c 0
 235 232 220 244 194 270 c 0
 170 294 157 310 157 316 c 0
 157 320 159 324 162 327 c 0
 206 371 259 405 322 430 c 0
 385 454 448 466 512 466 c 0
 576 466 639 454 702 430 c 0
 765 405 818 371 862 327 c 0
 865 324 867 320 867 316 c 0
 867 310 854 294 830 270 c 0
 804 244 789 232 784 232 c 0
919 368 m 0
 915 368 912 369 908 372 c 0
 848 424 786 464 722 490 c 0
 658 517 588 530 512 530 c 0
 436 530 366 517 302 490 c 0
 238 464 176 424 116 372 c 0
 112 369 109 368 105 368 c 0
 99 368 84 380 59 405 c 0
 34 430 21 446 21 452 c 0
 21 456 23 460 26 463 c 0
 88 525 162 573 248 607 c 0
 334 641 422 658 512 658 c 0
 602 658 690 641 776 607 c 0
 862 573 936 525 998 463 c 0
 1001 460 1003 456 1003 452 c 0
 1003 446 990 430 965 405 c 0
 940 380 925 368 919 368 c 0
EndSplineSet
EndChar

StartChar: T
Encoding: 84 84 10
Width: 1024
Flags: W
LayerCount: 2
Fore
SplineSet
576 185 m 0
 576 158 567 136 548 117 c 0
 529 98 507 89 480 89 c 0
 453 89 431 98 412 117 c 0
 393 136 384 158 384 185 c 0
 384 205 390 223 402 240 c 0
 413 257 429 268 448 276 c 1
 448 601 l 1
 512 601 l 1
 512 276 l 1
 531 268 547 257 558 240 c 0
 570 223 576 205 576 185 c 0
640 185 m 0
 640 211 634 235 623 257 c 0
 612 279 596 298 576 313 c 1
 576 697 l 2
 576 724 567 746 548 765 c 0
 529 784 507 793 480 793 c 0
 453 793 431 784 412 765 c 0
 393 746 384 724 384 697 c 2
 384 313 l 1
 364 298 348 279 337 257 c 0
 326 235 320 211 320 185 c 0
 320 141 336 103 367 72 c 0
 398 41 436 25 480 25 c 0
 524 25 562 41 593 72 c 0
 624 103 640 141 640 185 c 0
704 185 m 0
 704 123 682 71 638 27 c 0
 594 -17 542 -39 480 -39 c 0
 418 -39 366 -17 322 27 c 0
 278 71 256 123 256 185 c 0
 256 246 277 298 320 342 c 1
 320 697 l 2
 320 741 336 779 367 810 c 0
 398 841 436 857 480 857 c 0
 524 857 562 841 593 810 c 0
 624 779 640 741 640 697 c 2
 640 342 l 1
 683 298 704 246 704 185 c 0
768 473 m 1
 768 409 l 1
 672 409 l 1
 672 473 l 1
 768 473 l 1
768 601 m 1
 768 537 l 1
 672 537 l 1
 672 601 l 1
 768 601 l 1
768 729 m 1
 768 665 l 1
 672 665 l 1
 672 729 l 1
 768 729 l 1
EndSplineSet
EndChar

StartChar: W
Encoding: 87 87 11
Width: 1024
Flags: W
LayerCount: 2
Fore
SplineSet
620 328 m 0
 625 328 641 321 669 306 c 0
 697 291 712 282 714 280 c 0
 715 278 715 275 715 272 c 0
 715 261 712 248 706 234 c 0
 701 221 689 210 671 201 c 0
 653 192 636 188 620 188 c 0
 601 188 569 198 525 219 c 0
 492 234 464 254 440 278 c 0
 416 302 391 333 366 370 c 0
 342 406 330 438 330 468 c 2
 330 472 l 2
 332 502 344 528 368 550 c 0
 376 558 384 562 394 562 c 0
 396 562 398 561 402 561 c 0
 406 560 410 560 412 560 c 0
 418 560 423 559 425 557 c 0
 428 555 430 550 433 543 c 0
 436 536 441 522 450 499 c 0
 458 476 462 464 462 462 c 0
 462 454 456 445 445 433 c 0
 433 421 428 413 428 410 c 0
 428 407 428 405 430 402 c 0
 441 378 458 355 481 334 c 0
 500 316 525 299 556 283 c 0
 560 281 564 280 568 280 c 0
 572 280 582 288 594 304 c 0
 608 320 616 328 620 328 c 0
519 63 m 0
 561 63 602 71 641 88 c 0
 680 105 713 127 741 155 c 0
 769 183 791 216 808 255 c 0
 825 294 833 335 833 377 c 0
 833 419 825 460 808 499 c 0
 791 538 769 571 741 599 c 0
 713 627 680 649 641 666 c 0
 602 683 561 691 519 691 c 0
 477 691 436 683 397 666 c 0
 358 649 325 627 297 599 c 0
 269 571 247 538 230 499 c 0
 213 460 205 419 205 377 c 0
 205 309 225 248 265 193 c 1
 226 76 l 1
 346 115 l 1
 399 80 457 63 519 63 c 0
519 754 m 0
 570 754 619 744 665 724 c 0
 712 704 752 677 786 644 c 0
 819 610 846 570 866 523 c 0
 886 477 896 428 896 377 c 0
 896 326 886 277 866 231 c 0
 846 184 819 144 786 110 c 0
 752 77 712 50 665 30 c 0
 619 10 570 0 519 0 c 0
 454 0 393 16 336 47 c 1
 128 -20 l 1
 196 182 l 1
 160 242 142 307 142 377 c 0
 142 428 152 477 172 523 c 0
 192 570 219 610 252 644 c 0
 286 677 326 704 373 724 c 0
 419 744 468 754 519 754 c 0
EndSplineSet
EndChar

StartChar: a
Encoding: 97 97 12
Width: 1024
Flags: W
LayerCount: 2
Fore
SplineSet
864 111 m 2
 864 463 l 2
 864 476 859 488 850 497 c 0
 841 506 829 511 816 511 c 2
 464 511 l 2
 451 511 439 516 430 525 c 0
 421 534 416 546 416 559 c 2
 416 591 l 2
 416 604 411 616 402 625 c 0
 393 634 381 639 368 639 c 2
 208 639 l 2
 195 639 183 634 174 625 c 0
 165 616 160 604 160 591 c 2
 160 111 l 2
 160 98 165 86 174 77 c 0
 183 68 195 63 208 63 c 2
 816 63 l 2
 829 63 841 68 850 77 c 0
 859 86 864 98 864 111 c 2
928 463 m 2
 928 111 l 2
 928 80 917 54 895 32 c 0
 873 10 847 -1 816 -1 c 2
 208 -1 l 2
 177 -1 151 10 129 32 c 0
 107 54 96 80 96 111 c 2
 96 591 l 2
 96 622 107 648 129 670 c 0
 151 692 177 703 208 703 c 2
 368 703 l 2
 399 703 425 692 447 670 c 0
 469 648 480 622 480 591 c 2
 480 575 l 1
 816 575 l 2
 847 575 873 564 895 542 c 0
 917 520 928 494 928 463 c 2
EndSplineSet
EndChar

StartChar: b
Encoding: 98 98 13
Width: 1024
Flags: W
LayerCount: 2
Fore
SplineSet
925 302 m 0
 925 314 916 320 899 320 c 2
 355 320 l 2
 341 320 327 316 312 309 c 0
 297 302 285 293 276 283 c 2
 129 102 l 2
 123 94 120 87 120 82 c 0
 120 70 129 64 147 64 c 2
 691 64 l 2
 704 64 718 68 734 75 c 0
 749 82 761 91 769 102 c 2
 916 283 l 2
 922 290 925 297 925 302 c 0
355 384 m 2
 739 384 l 1
 739 464 l 2
 739 477 734 489 725 498 c 0
 715 507 704 512 691 512 c 2
 403 512 l 2
 389 512 378 517 369 526 c 0
 359 535 355 547 355 560 c 2
 355 592 l 2
 355 605 350 617 341 626 c 0
 331 635 320 640 307 640 c 2
 147 640 l 2
 133 640 122 635 113 626 c 0
 103 617 99 605 99 592 c 2
 99 166 l 1
 227 323 l 2
 241 341 261 355 285 367 c 0
 309 378 332 384 355 384 c 2
989 302 m 0
 989 282 982 262 966 242 c 2
 819 61 l 2
 804 43 785 29 761 17 c 0
 736 6 713 0 691 0 c 2
 147 0 l 2
 116 0 90 11 68 33 c 0
 46 55 35 81 35 112 c 2
 35 592 l 2
 35 623 46 649 68 671 c 0
 90 693 116 704 147 704 c 2
 307 704 l 2
 337 704 364 693 386 671 c 0
 408 649 419 623 419 592 c 2
 419 576 l 1
 691 576 l 2
 721 576 748 565 770 543 c 0
 792 521 803 495 803 464 c 2
 803 384 l 1
 899 384 l 2
 917 384 933 380 948 372 c 0
 963 364 974 352 982 336 c 0
 987 326 989 314 989 302 c 0
EndSplineSet
EndChar

StartChar: c
Encoding: 99 99 14
Width: 1024
Flags: W
LayerCount: 2
Fore
SplineSet
640 384 m 0
 640 419 628 450 602 474 c 0
 578 500 547 512 512 512 c 0
 477 512 446 500 422 474 c 0
 396 450 384 419 384 384 c 0
 384 349 396 318 422 294 c 0
 446 268 477 256 512 256 c 0
 547 256 578 268 602 294 c 0
 628 318 640 349 640 384 c 0
896 438 m 2
 896 328 l 2
 896 324 895 320 892 316 c 0
 889 312 886 310 882 310 c 2
 790 296 l 1
 783 278 777 262 770 250 c 1
 782 233 800 210 824 181 c 0
 827 177 828 173 828 168 c 0
 828 164 827 160 824 157 c 0
 815 145 798 127 774 103 c 0
 750 79 735 68 728 68 c 0
 724 68 719 69 714 72 c 2
 646 126 l 1
 631 118 616 112 600 107 c 1
 595 62 590 31 586 14 c 0
 583 5 577 0 568 0 c 2
 456 0 l 2
 452 0 448 1 444 4 c 0
 441 7 439 11 438 15 c 2
 424 107 l 1
 408 112 393 118 380 126 c 1
 309 72 l 2
 306 69 302 68 296 68 c 0
 292 68 288 69 284 73 c 0
 242 111 214 139 202 157 c 0
 199 160 198 164 198 168 c 0
 198 172 199 176 202 180 c 0
 207 187 216 198 228 213 c 0
 240 228 248 240 254 248 c 1
 246 265 239 282 234 298 c 1
 142 312 l 2
 138 312 135 314 132 318 c 0
 129 321 128 325 128 330 c 2
 128 440 l 2
 128 444 129 448 132 452 c 0
 135 456 138 458 142 458 c 2
 234 472 l 1
 239 488 246 503 254 518 c 1
 241 538 223 560 200 588 c 0
 197 592 196 596 196 600 c 0
 196 603 197 607 200 611 c 0
 209 623 225 641 249 665 c 0
 273 689 289 700 296 700 c 0
 301 700 305 699 310 696 c 2
 378 642 l 1
 393 650 408 656 424 661 c 1
 429 706 434 737 438 754 c 0
 441 763 447 768 456 768 c 2
 568 768 l 2
 572 768 576 767 580 764 c 0
 583 761 585 757 586 753 c 2
 600 661 l 1
 616 656 631 650 644 642 c 1
 716 696 l 2
 718 699 722 700 728 700 c 0
 732 700 736 699 740 696 c 0
 783 656 810 628 822 610 c 0
 825 608 826 604 826 600 c 0
 826 596 825 592 822 588 c 0
 817 581 808 570 796 555 c 0
 784 540 776 528 770 520 c 1
 778 503 785 486 790 470 c 1
 882 456 l 2
 886 456 889 454 892 450 c 0
 895 447 896 443 896 438 c 2
EndSplineSet
EndChar

StartChar: f
Encoding: 102 102 15
Width: 1024
Flags: W
LayerCount: 2
Fore
SplineSet
515 -50 m 0
 421 -50 337 -24 263 26 c 0
 189 76 134 142 98 225 c 0
 79 269 68 319 65 376 c 0
 62 432 66 488 78 542 c 0
 90 596 108 648 133 698 c 0
 159 748 189 788 223 819 c 1
 217 678 l 1
 221 683 232 686 251 686 c 0
 270 687 282 684 286 678 c 1
 300 706 327 728 367 748 c 0
 406 766 445 776 484 777 c 1
 466 762 446 737 424 703 c 0
 402 668 393 641 395 621 c 1
 403 618 414 616 426 614 c 0
 439 612 449 611 458 610 c 0
 466 610 478 609 492 608 c 0
 506 608 514 607 517 607 c 0
 522 605 524 598 522 584 c 0
 520 571 515 558 506 546 c 0
 505 544 502 541 498 537 c 0
 494 533 485 528 470 520 c 0
 455 512 438 506 419 502 c 1
 427 408 l 1
 357 442 l 1
 351 427 350 414 354 401 c 0
 357 388 363 377 372 368 c 0
 380 358 391 351 404 347 c 0
 418 342 431 341 445 344 c 0
 462 346 478 352 494 361 c 0
 510 369 524 377 536 383 c 0
 548 390 560 393 572 392 c 0
 593 391 608 385 617 376 c 0
 627 366 630 355 627 343 c 0
 627 342 626 341 626 340 c 0
 625 339 624 337 621 334 c 0
 619 331 616 328 612 326 c 0
 609 324 604 322 597 321 c 0
 590 320 582 320 573 320 c 1
 553 289 529 266 501 253 c 0
 473 239 438 234 396 238 c 1
 421 218 448 204 478 197 c 0
 507 190 535 189 562 194 c 0
 589 199 614 208 639 220 c 0
 664 232 685 246 703 264 c 0
 721 280 734 298 743 316 c 0
 758 346 764 378 763 412 c 0
 762 446 755 477 744 506 c 0
 733 535 720 556 705 568 c 1
 734 556 757 543 773 529 c 0
 790 515 803 496 812 472 c 1
 817 529 807 586 783 644 c 0
 759 702 724 749 678 786 c 1
 767 760 835 714 884 646 c 0
 933 579 959 492 960 388 c 0
 961 345 954 303 940 260 c 0
 926 217 905 178 878 141 c 0
 851 104 819 72 783 43 c 0
 747 14 706 -8 660 -25 c 0
 613 -41 565 -50 515 -50 c 0
EndSplineSet
EndChar

StartChar: g
Encoding: 103 103 16
Width: 1024
Flags: W
LayerCount: 2
Fore
SplineSet
512 750 m 0
 582 750 646 733 705 698 c 0
 764 664 810 618 844 559 c 0
 879 500 896 436 896 366 c 0
 896 282 872 207 823 140 c 0
 774 73 711 27 634 2 c 0
 624 0 618 1 614 5 c 0
 609 9 607 14 607 20 c 2
 607 58 l 2
 607 83 608 105 608 126 c 0
 608 158 599 182 582 196 c 1
 600 198 618 202 633 206 c 0
 648 210 664 216 680 225 c 0
 696 234 709 245 720 258 c 0
 731 271 740 289 747 311 c 0
 754 333 757 358 757 386 c 0
 757 426 744 460 718 489 c 1
 730 519 728 553 714 591 c 1
 704 594 691 592 673 586 c 0
 655 579 640 572 627 564 c 2
 608 552 l 1
 577 560 545 564 512 564 c 0
 479 564 447 560 416 552 c 1
 411 555 404 560 395 565 c 0
 386 570 372 577 353 584 c 0
 334 592 320 594 310 591 c 1
 296 553 294 519 306 489 c 1
 280 460 267 426 267 386 c 0
 267 358 270 333 277 311 c 0
 284 289 293 272 304 258 c 0
 314 245 328 234 344 225 c 0
 360 216 376 210 391 206 c 0
 406 202 423 198 442 196 c 1
 429 184 421 167 418 145 c 1
 410 142 403 139 395 138 c 0
 387 136 378 135 366 135 c 0
 356 135 345 139 334 146 c 0
 323 153 314 163 306 177 c 0
 300 188 292 196 282 203 c 0
 272 210 264 214 257 215 c 2
 247 216 l 2
 240 216 235 216 232 214 c 0
 230 213 229 211 230 208 c 0
 231 206 232 204 234 202 c 0
 236 199 239 197 241 196 c 2
 244 193 l 2
 252 190 259 183 266 174 c 0
 273 165 279 156 282 148 c 2
 287 137 l 2
 291 124 299 114 309 106 c 0
 319 98 330 93 342 91 c 0
 354 89 366 88 377 88 c 0
 388 88 398 88 405 90 c 2
 416 92 l 1
 416 79 417 64 417 47 c 2
 417 20 l 2
 417 14 415 9 410 5 c 0
 406 1 400 0 390 2 c 0
 313 27 250 73 201 140 c 0
 152 207 128 282 128 366 c 0
 128 436 145 500 180 559 c 0
 214 618 260 664 319 698 c 0
 378 733 442 750 512 750 c 0
274 198 m 0
 272 196 270 196 267 198 c 0
 264 199 262 201 264 204 c 0
 264 205 267 206 270 204 c 0
 273 203 274 201 274 198 c 0
289 182 m 0
 287 179 284 180 281 183 c 0
 278 187 278 189 280 191 c 0
 282 193 285 192 288 190 c 0
 291 186 291 183 289 182 c 0
304 159 m 0
 301 157 298 158 296 162 c 0
 292 167 292 170 296 172 c 0
 298 174 301 173 304 168 c 0
 307 164 307 161 304 159 c 0
325 138 m 0
 322 135 319 136 315 140 c 0
 311 143 310 146 313 149 c 0
 316 152 319 152 323 148 c 0
 327 144 328 141 325 138 c 0
354 126 m 0
 352 122 349 120 344 122 c 0
 338 124 336 126 338 130 c 0
 339 134 342 135 347 134 c 0
 352 132 354 129 354 126 c 0
385 123 m 0
 385 119 382 118 377 118 c 0
 371 117 368 119 368 123 c 0
 368 127 371 128 376 128 c 0
 382 129 385 127 385 123 c 0
414 128 m 0
 415 125 412 122 407 121 c 0
 402 120 399 121 398 125 c 0
 397 129 400 132 405 132 c 0
 410 133 413 132 414 128 c 0
EndSplineSet
EndChar

StartChar: l
Encoding: 108 108 17
Width: 1024
Flags: W
LayerCount: 2
Fore
SplineSet
459 613 m 1
 456 613 453 611 452 608 c 0
 450 605 449 603 447 603 c 0
 446 603 445 604 445 606 c 0
 445 610 448 612 454 613 c 2
 459 613 l 1
503 606 m 0
 502 606 500 607 497 610 c 0
 495 612 492 613 488 612 c 1
 496 616 502 615 504 611 c 0
 505 609 505 607 503 606 c 0
327 393 m 0
 326 393 325 393 324 391 c 0
 324 390 323 388 322 385 c 0
 321 382 320 380 319 378 c 0
 318 377 317 375 314 372 c 0
 311 368 311 366 314 366 c 0
 315 366 317 367 320 369 c 0
 323 372 325 375 326 378 c 0
 327 379 327 381 327 382 c 0
 328 383 328 384 328 385 c 0
 329 386 329 386 329 387 c 2
 329 389 l 1
 329 391 l 1
 329 392 l 2
 329 393 328 393 327 393 c 0
755 213 m 1
 755 219 746 226 727 234 c 1
 729 239 730 244 731 248 c 0
 732 252 733 257 734 261 c 0
 734 266 735 269 735 272 c 0
 736 275 736 278 735 283 c 2
 735 293 l 2
 735 295 734 298 733 304 c 0
 732 310 731 313 731 314 c 0
 731 315 730 320 729 327 c 0
 727 334 726 338 726 340 c 0
 723 356 715 373 702 391 c 0
 690 410 678 422 666 429 c 1
 674 422 684 408 695 387 c 0
 724 333 733 287 722 248 c 0
 718 235 710 228 697 227 c 0
 687 226 680 229 678 237 c 0
 675 244 674 258 674 278 c 0
 673 299 672 317 668 332 c 0
 665 345 662 356 658 366 c 0
 655 376 651 384 648 389 c 0
 645 394 643 398 641 401 c 0
 638 404 636 407 634 409 c 0
 632 411 631 412 630 412 c 0
 626 433 621 450 615 464 c 0
 609 478 604 487 600 492 c 0
 596 497 592 502 588 508 c 0
 585 514 582 521 581 528 c 0
 580 535 581 544 584 555 c 0
 587 566 588 574 586 580 c 0
 584 586 577 590 564 592 c 0
 559 593 551 596 542 601 c 0
 532 606 526 609 524 609 c 0
 521 610 519 614 518 622 c 0
 517 631 519 639 522 648 c 0
 526 657 532 661 540 661 c 0
 553 662 561 657 566 646 c 0
 571 635 571 626 568 617 c 0
 564 611 564 607 567 604 c 0
 570 602 575 602 582 604 c 0
 586 605 588 611 588 622 c 2
 588 640 l 2
 587 650 584 659 582 665 c 0
 579 672 575 677 571 681 c 0
 567 684 563 687 559 688 c 0
 556 690 551 691 546 692 c 0
 510 689 495 667 501 625 c 1
 501 617 l 1
 498 620 493 622 486 623 c 0
 479 623 474 623 470 622 c 0
 465 622 463 623 462 625 c 0
 462 644 460 659 454 670 c 0
 448 681 441 687 431 687 c 0
 422 687 415 683 411 673 c 0
 406 664 403 654 402 643 c 0
 402 638 403 632 404 625 c 0
 406 618 408 611 411 606 c 0
 413 601 416 599 418 599 c 0
 422 600 424 603 426 606 c 0
 428 609 427 611 423 610 c 0
 421 610 418 613 415 618 c 0
 412 623 411 628 410 634 c 0
 410 642 412 648 415 653 c 0
 418 658 424 660 432 660 c 0
 438 660 442 656 445 649 c 0
 449 642 450 636 450 630 c 0
 450 624 450 620 449 619 c 0
 442 614 437 609 434 604 c 0
 431 600 427 597 420 593 c 0
 414 589 410 587 410 586 c 0
 406 582 403 577 402 573 c 0
 401 569 403 566 406 564 c 0
 411 561 415 558 418 554 c 0
 422 550 425 547 426 545 c 0
 428 542 431 540 436 538 c 0
 440 536 446 535 453 535 c 0
 469 534 486 537 504 542 c 0
 505 543 509 544 516 546 c 0
 523 548 529 550 533 551 c 0
 538 553 543 555 548 558 c 0
 553 561 557 563 558 566 c 0
 561 571 565 572 568 570 c 0
 570 569 571 568 572 566 c 0
 572 564 572 562 570 560 c 0
 569 558 566 556 562 555 c 0
 555 553 546 550 534 545 c 0
 521 540 514 536 511 535 c 0
 496 529 485 525 476 523 c 0
 468 522 454 522 436 524 c 0
 433 525 432 525 432 523 c 0
 432 522 435 519 440 514 c 0
 449 506 460 503 474 503 c 0
 480 503 486 504 492 506 c 0
 498 508 504 511 510 513 c 0
 516 516 521 519 527 522 c 2
 542 531 l 1
 554 537 l 2
 558 538 560 539 563 538 c 0
 565 537 566 535 567 532 c 2
 567 532 567 531 566 530 c 0
 566 529 565 529 564 528 c 2
 561 525 l 2
 560 525 559 524 557 523 c 0
 555 522 554 521 553 521 c 0
 551 520 550 519 548 518 c 0
 545 517 544 516 543 516 c 0
 534 511 522 504 509 494 c 0
 496 484 485 477 476 472 c 0
 467 468 459 468 451 472 c 0
 444 476 434 488 420 508 c 0
 413 519 408 522 407 519 c 2
 407 514 l 2
 407 506 404 497 399 486 c 2
 385 458 l 2
 380 450 376 441 374 429 c 0
 372 418 374 408 380 398 c 1
 372 396 362 381 349 353 c 0
 335 325 328 301 325 282 c 0
 324 276 324 265 324 248 c 0
 324 231 323 221 321 218 c 0
 319 210 314 210 307 217 c 0
 296 227 290 243 289 264 c 0
 288 273 289 283 291 292 c 0
 292 298 292 301 290 301 c 2
 290 301 289 300 288 298 c 0
 276 277 278 249 293 215 c 0
 295 211 299 207 306 201 c 0
 313 196 317 193 318 191 c 0
 325 184 342 169 370 146 c 0
 398 124 413 111 416 108 c 0
 422 103 425 97 425 89 c 0
 426 81 423 74 418 67 c 0
 413 61 405 57 395 56 c 1
 398 51 403 44 410 34 c 0
 417 24 422 15 424 7 c 0
 426 -1 427 -13 427 -29 c 1
 443 -21 444 -5 431 17 c 0
 430 20 428 23 426 25 c 0
 423 28 422 30 421 31 c 0
 420 33 420 34 420 34 c 2
 421 36 423 38 426 39 c 0
 430 41 433 40 436 38 c 0
 452 21 479 15 519 20 c 0
 564 25 593 39 608 63 c 0
 616 76 621 81 625 78 c 0
 629 76 631 68 630 52 c 0
 630 44 626 29 618 6 c 0
 615 -1 614 -7 615 -12 c 0
 616 -17 620 -20 627 -20 c 1
 628 -14 631 -1 635 18 c 0
 638 38 641 53 641 63 c 0
 642 70 641 83 638 100 c 0
 635 118 634 134 634 149 c 0
 635 164 639 175 646 184 c 0
 651 190 659 193 671 193 c 1
 672 205 677 214 689 219 c 0
 700 225 712 227 725 225 c 0
 738 223 748 219 755 213 c 1
441 627 m 0
 442 633 441 638 440 642 c 0
 438 646 436 649 434 649 c 0
 431 650 429 649 429 646 c 0
 430 644 431 643 432 643 c 0
 435 643 436 640 435 635 c 0
 434 629 436 625 439 625 c 0
 440 625 441 626 441 627 c 0
650 528 m 0
 650 531 649 533 647 534 c 0
 646 535 643 536 641 537 c 0
 638 537 635 538 633 539 c 2
 629 543 l 1
 625 547 l 2
 624 548 623 550 622 551 c 0
 621 552 621 553 620 553 c 2
 620 553 619 553 618 552 c 0
 614 547 615 539 622 530 c 0
 629 521 635 516 641 514 c 0
 644 514 647 515 649 518 c 0
 650 521 651 525 650 528 c 0
561 635 m 2
 561 639 561 642 559 645 c 0
 557 648 555 650 553 651 c 0
 551 652 550 653 549 652 c 0
 547 652 546 652 545 651 c 0
 544 651 544 650 545 649 c 0
 546 649 546 648 547 648 c 0
 552 647 555 641 556 632 c 0
 556 631 558 632 560 633 c 0
 561 634 561 635 561 635 c 2
588 751 m 0
 588 752 588 753 587 754 c 0
 586 755 585 756 583 757 c 0
 580 759 579 760 578 760 c 0
 573 765 569 768 566 768 c 0
 563 768 561 766 560 764 c 0
 559 762 559 760 560 758 c 0
 560 756 560 753 559 751 c 0
 559 750 558 748 556 746 c 0
 555 744 554 743 553 742 c 0
 553 741 554 739 555 737 c 0
 556 736 558 736 559 737 c 2
 564 742 l 2
 567 744 569 745 572 746 c 0
 572 747 574 747 576 747 c 0
 579 747 582 747 584 748 c 0
 586 749 588 750 588 751 c 0
871 81 m 0
 878 77 883 73 886 69 c 0
 890 65 892 61 892 57 c 0
 893 53 892 49 891 45 c 0
 890 42 887 38 883 34 c 0
 879 31 875 28 872 25 c 0
 868 22 863 19 857 15 c 0
 850 12 845 9 841 7 c 2
 825 -1 l 2
 819 -4 814 -6 811 -7 c 0
 799 -13 784 -23 769 -35 c 0
 753 -47 740 -58 731 -67 c 0
 725 -72 714 -76 697 -77 c 0
 680 -78 665 -76 652 -70 c 0
 646 -67 641 -63 638 -58 c 0
 634 -53 631 -49 629 -45 c 0
 628 -41 624 -38 618 -35 c 0
 613 -32 605 -31 595 -31 c 0
 580 -30 559 -30 530 -30 c 0
 524 -30 514 -30 501 -31 c 0
 489 -31 479 -32 472 -32 c 0
 458 -32 444 -35 433 -40 c 0
 421 -44 412 -49 406 -55 c 0
 400 -60 393 -65 384 -69 c 0
 376 -73 367 -75 357 -75 c 0
 348 -74 329 -69 302 -59 c 0
 275 -49 250 -42 229 -38 c 0
 223 -36 214 -35 203 -33 c 0
 193 -31 184 -29 178 -28 c 0
 172 -27 166 -26 159 -24 c 0
 151 -22 146 -19 142 -16 c 0
 138 -13 135 -10 133 -7 c 0
 130 1 131 12 137 27 c 0
 143 41 146 50 146 54 c 0
 146 59 146 66 144 74 c 0
 142 82 141 89 139 95 c 0
 137 101 136 107 137 113 c 0
 137 119 139 124 142 127 c 0
 147 131 156 133 170 134 c 0
 185 135 195 137 200 140 c 0
 210 146 217 152 221 157 c 0
 225 163 227 172 227 183 c 1
 234 159 229 141 211 130 c 0
 201 123 187 121 170 122 c 0
 159 123 151 122 148 117 c 0
 144 112 145 103 151 89 c 0
 152 87 153 84 155 80 c 0
 157 76 158 73 159 71 c 0
 160 69 161 66 161 62 c 0
 162 59 162 55 162 51 c 0
 162 46 159 38 153 27 c 0
 148 16 145 8 146 3 c 0
 147 -3 154 -7 165 -10 c 0
 172 -12 186 -15 207 -19 c 0
 229 -23 245 -27 257 -30 c 0
 265 -32 277 -35 294 -41 c 0
 311 -46 324 -50 335 -52 c 0
 346 -54 355 -55 363 -54 c 0
 377 -52 388 -47 395 -40 c 0
 402 -33 406 -25 407 -16 c 0
 407 -7 406 2 403 13 c 0
 400 24 397 33 393 39 c 0
 390 46 387 52 383 57 c 0
 343 121 315 161 299 178 c 0
 276 203 257 210 242 198 c 0
 239 195 236 198 235 206 c 0
 234 211 234 218 234 225 c 0
 234 235 236 243 239 251 c 0
 242 259 246 266 251 274 c 0
 256 282 260 289 262 295 c 0
 265 302 269 314 275 331 c 0
 281 348 286 361 290 370 c 0
 294 379 299 390 305 401 c 0
 311 412 318 421 324 428 c 0
 361 476 382 508 386 525 c 1
 382 563 380 614 378 680 c 0
 378 710 382 736 390 756 c 0
 399 777 417 794 443 808 c 0
 456 815 474 819 495 819 c 0
 513 819 531 817 548 812 c 0
 566 807 581 800 593 791 c 0
 612 777 627 757 639 731 c 0
 650 704 655 680 653 657 c 0
 652 625 657 590 668 550 c 0
 680 512 702 476 735 441 c 0
 753 421 770 394 785 359 c 0
 799 325 809 293 814 264 c 0
 817 248 818 234 817 222 c 0
 816 210 814 201 811 194 c 0
 808 187 805 184 801 183 c 0
 798 182 794 179 789 173 c 0
 785 168 780 162 776 156 c 0
 771 150 764 144 755 139 c 0
 746 134 736 132 725 132 c 0
 719 132 714 133 709 134 c 0
 705 136 701 138 698 141 c 0
 695 144 693 147 691 149 c 0
 690 151 688 154 685 159 c 0
 683 164 682 167 681 169 c 0
 674 181 667 186 660 184 c 0
 654 182 649 173 646 159 c 0
 643 145 645 129 650 111 c 0
 657 88 657 55 650 13 c 0
 647 -8 650 -25 659 -37 c 0
 669 -49 681 -54 696 -53 c 0
 711 -52 725 -47 738 -36 c 0
 758 -19 773 -8 783 -2 c 0
 793 4 811 11 835 19 c 0
 853 25 865 31 873 37 c 0
 881 43 884 49 883 54 c 0
 881 60 877 65 870 69 c 0
 864 73 855 77 844 80 c 0
 833 84 825 92 820 104 c 0
 814 117 812 129 812 141 c 0
 813 153 815 160 820 164 c 1
 820 154 822 145 824 136 c 0
 826 128 829 121 831 116 c 0
 834 111 837 106 841 102 c 0
 846 97 849 94 852 92 c 0
 855 90 858 88 863 86 c 0
 867 83 870 82 871 81 c 0
EndSplineSet
EndChar

StartChar: m
Encoding: 109 109 18
Width: 1024
Flags: W
LayerCount: 2
Fore
SplineSet
896 81 m 2
 896 465 l 1
 885 453 874 442 862 432 c 0
 772 363 701 307 648 263 c 0
 632 249 618 238 607 230 c 0
 596 222 582 213 564 205 c 0
 546 197 528 193 512 193 c 1
 512 193 l 1
 512 193 l 1
 496 193 478 197 460 205 c 0
 442 213 428 222 417 230 c 0
 406 238 392 249 376 263 c 0
 323 307 252 363 162 432 c 0
 150 442 139 453 128 465 c 1
 128 81 l 2
 128 77 130 73 133 70 c 0
 136 67 140 65 144 65 c 2
 880 65 l 2
 884 65 888 67 891 70 c 0
 894 73 896 77 896 81 c 2
896 606 m 2
 896 612 l 1
 896 619 l 1
 896 625 l 2
 896 630 895 632 894 632 c 0
 893 631 892 633 892 636 c 0
 890 639 889 640 887 640 c 0
 885 639 883 640 880 641 c 2
 144 641 l 2
 140 641 136 639 133 636 c 0
 130 633 128 629 128 625 c 0
 128 569 152 522 202 483 c 0
 266 432 333 380 402 324 c 0
 404 323 410 318 420 310 c 0
 429 302 437 295 442 291 c 0
 448 287 456 281 465 275 c 0
 474 269 482 264 490 262 c 0
 498 258 505 257 512 257 c 1
 512 257 l 1
 512 257 l 1
 519 257 526 258 534 262 c 0
 542 264 550 269 559 275 c 0
 568 281 576 287 582 291 c 0
 587 295 595 302 604 310 c 0
 614 318 620 323 622 324 c 0
 691 380 758 432 822 483 c 0
 840 497 857 517 873 541 c 0
 888 565 896 587 896 606 c 2
960 625 m 2
 960 81 l 2
 960 59 952 40 936 24 c 0
 921 9 902 1 880 1 c 2
 144 1 l 2
 122 1 103 9 88 24 c 0
 72 40 64 59 64 81 c 2
 64 625 l 2
 64 647 72 666 88 682 c 0
 103 697 122 705 144 705 c 2
 880 705 l 2
 902 705 921 697 936 682 c 0
 952 666 960 647 960 625 c 2
EndSplineSet
EndChar

StartChar: n
Encoding: 110 110 19
Width: 1024
Flags: W
LayerCount: 2
Fore
SplineSet
512 0 m 0
 505 0 490 13 466 37 c 0
 441 62 429 77 429 84 c 0
 429 95 439 104 460 111 c 0
 481 118 498 122 512 122 c 0
 526 122 543 118 564 111 c 0
 585 104 595 95 595 84 c 0
 595 77 583 62 558 37 c 0
 534 13 519 0 512 0 c 0
647 136 m 0
 646 136 640 140 627 148 c 0
 614 157 597 165 576 174 c 0
 555 182 534 186 512 186 c 0
 490 186 469 182 448 174 c 0
 427 165 410 157 397 148 c 0
 385 140 378 136 377 136 c 0
 371 136 355 148 330 174 c 0
 305 198 292 214 292 220 c 0
 292 224 294 228 298 232 c 0
 324 257 356 277 396 292 c 0
 435 307 474 314 512 314 c 0
 550 314 589 307 628 292 c 0
 668 277 700 257 726 232 c 0
 730 228 732 224 732 220 c 0
 732 214 719 198 694 174 c 0
 669 148 653 136 647 136 c 0
784 272 m 0
 780 272 776 273 772 276 c 0
 727 311 685 337 646 353 c 0
 607 370 563 378 512 378 c 0
 484 378 455 374 427 367 c 0
 398 360 373 351 352 340 c 0
 331 330 312 320 296 310 c 0
 279 299 266 290 256 283 c 0
 246 276 241 272 240 272 c 0
 235 272 220 284 194 310 c 0
 170 334 157 350 157 356 c 0
 157 360 159 364 162 367 c 0
 206 411 259 445 322 470 c 0
 385 494 448 506 512 506 c 0
 576 506 639 494 702 470 c 0
 765 445 818 411 862 367 c 0
 865 364 867 360 867 356 c 0
 867 350 854 334 830 310 c 0
 804 284 789 272 784 272 c 0
919 408 m 0
 915 408 912 409 908 412 c 0
 848 464 786 504 722 530 c 0
 658 557 588 570 512 570 c 0
 436 570 366 557 302 530 c 0
 238 504 176 464 116 412 c 0
 112 409 109 408 105 408 c 0
 99 408 84 420 59 445 c 0
 34 470 21 486 21 492 c 0
 21 496 23 500 26 503 c 0
 88 565 162 613 248 647 c 0
 334 681 422 698 512 698 c 0
 602 698 690 681 776 647 c 0
 862 613 936 565 998 503 c 0
 1001 500 1003 496 1003 492 c 0
 1003 486 990 470 965 445 c 0
 940 420 925 408 919 408 c 0
EndSplineSet
EndChar

StartChar: w
Encoding: 119 119 20
Width: 1024
Flags: W
LayerCount: 2
Fore
SplineSet
620 328 m 0
 625 328 641 321 669 306 c 0
 697 291 712 282 714 280 c 0
 715 278 715 275 715 272 c 0
 715 261 712 248 706 234 c 0
 701 221 689 210 671 201 c 0
 653 192 636 188 620 188 c 0
 601 188 569 198 525 219 c 0
 492 234 464 254 440 278 c 0
 416 302 391 333 366 370 c 0
 342 406 330 438 330 468 c 2
 330 472 l 2
 332 502 344 528 368 550 c 0
 376 558 384 562 394 562 c 0
 396 562 398 561 402 561 c 0
 406 560 410 560 412 560 c 0
 418 560 423 559 425 557 c 0
 428 555 430 550 433 543 c 0
 436 536 441 522 450 499 c 0
 458 476 462 464 462 462 c 0
 462 454 456 445 445 433 c 0
 433 421 428 413 428 410 c 0
 428 407 428 405 430 402 c 0
 441 378 458 355 481 334 c 0
 500 316 525 299 556 283 c 0
 560 281 564 280 568 280 c 0
 572 280 582 288 594 304 c 0
 608 320 616 328 620 328 c 0
519 63 m 0
 561 63 602 71 641 88 c 0
 680 105 713 127 741 155 c 0
 769 183 791 216 808 255 c 0
 825 294 833 335 833 377 c 0
 833 419 825 460 808 499 c 0
 791 538 769 571 741 599 c 0
 713 627 680 649 641 666 c 0
 602 683 561 691 519 691 c 0
 477 691 436 683 397 666 c 0
 358 649 325 627 297 599 c 0
 269 571 247 538 230 499 c 0
 213 460 205 419 205 377 c 0
 205 309 225 248 265 193 c 1
 226 76 l 1
 346 115 l 1
 399 80 457 63 519 63 c 0
519 754 m 0
 570 754 619 744 665 724 c 0
 712 704 752 677 786 644 c 0
 819 610 846 570 866 523 c 0
 886 477 896 428 896 377 c 0
 896 326 886 277 866 231 c 0
 846 184 819 144 786 110 c 0
 752 77 712 50 665 30 c 0
 619 10 570 0 519 0 c 0
 454 0 393 16 336 47 c 1
 128 -20 l 1
 196 182 l 1
 160 242 142 307 142 377 c 0
 142 428 152 477 172 523 c 0
 192 570 219 610 252 644 c 0
 286 677 326 704 373 724 c 0
 419 744 468 754 519 754 c 0
EndSplineSet
EndChar

StartChar: A
Encoding: 65 65 21
Width: 1024
Flags: W
LayerCount: 2
Fore
SplineSet
864 111 m 2
 864 463 l 2
 864 476 859 488 850 497 c 0
 841 506 829 511 816 511 c 2
 464 511 l 2
 451 511 439 516 430 525 c 0
 421 534 416 546 416 559 c 2
 416 591 l 2
 416 604 411 616 402 625 c 0
 393 634 381 639 368 639 c 2
 208 639 l 2
 195 639 183 634 174 625 c 0
 165 616 160 604 160 591 c 2
 160 111 l 2
 160 98 165 86 174 77 c 0
 183 68 195 63 208 63 c 2
 816 63 l 2
 829 63 841 68 850 77 c 0
 859 86 864 98 864 111 c 2
928 463 m 2
 928 111 l 2
 928 80 917 54 895 32 c 0
 873 10 847 -1 816 -1 c 2
 208 -1 l 2
 177 -1 151 10 129 32 c 0
 107 54 96 80 96 111 c 2
 96 591 l 2
 96 622 107 648 129 670 c 0
 151 692 177 703 208 703 c 2
 368 703 l 2
 399 703 425 692 447 670 c 0
 469 648 480 622 480 591 c 2
 480 575 l 1
 816 575 l 2
 847 575 873 564 895 542 c 0
 917 520 928 494 928 463 c 2
EndSplineSet
EndChar

StartChar: t
Encoding: 116 116 22
Width: 1024
Flags: W
LayerCount: 2
Fore
SplineSet
576 185 m 0
 576 158 567 136 548 117 c 0
 529 98 507 89 480 89 c 0
 453 89 431 98 412 117 c 0
 393 136 384 158 384 185 c 0
 384 205 390 223 402 240 c 0
 413 257 429 268 448 276 c 1
 448 601 l 1
 512 601 l 1
 512 276 l 1
 531 268 547 257 558 240 c 0
 570 223 576 205 576 185 c 0
640 185 m 0
 640 211 634 235 623 257 c 0
 612 279 596 298 576 313 c 1
 576 697 l 2
 576 724 567 746 548 765 c 0
 529 784 507 793 480 793 c 0
 453 793 431 784 412 765 c 0
 393 746 384 724 384 697 c 2
 384 313 l 1
 364 298 348 279 337 257 c 0
 326 235 320 211 320 185 c 0
 320 141 336 103 367 72 c 0
 398 41 436 25 480 25 c 0
 524 25 562 41 593 72 c 0
 624 103 640 141 640 185 c 0
704 185 m 0
 704 123 682 71 638 27 c 0
 594 -17 542 -39 480 -39 c 0
 418 -39 366 -17 322 27 c 0
 278 71 256 123 256 185 c 0
 256 246 277 298 320 342 c 1
 320 697 l 2
 320 741 336 779 367 810 c 0
 398 841 436 857 480 857 c 0
 524 857 562 841 593 810 c 0
 624 779 640 741 640 697 c 2
 640 342 l 1
 683 298 704 246 704 185 c 0
768 473 m 1
 768 409 l 1
 672 409 l 1
 672 473 l 1
 768 473 l 1
768 601 m 1
 768 537 l 1
 672 537 l 1
 672 601 l 1
 768 601 l 1
768 729 m 1
 768 665 l 1
 672 665 l 1
 672 729 l 1
 768 729 l 1
EndSplineSet
EndChar

StartChar: C
Encoding: 67 67 23
Width: 1024
Flags: W
LayerCount: 2
Fore
SplineSet
640 384 m 0
 640 419 628 450 602 474 c 0
 578 500 547 512 512 512 c 0
 477 512 446 500 422 474 c 0
 396 450 384 419 384 384 c 0
 384 349 396 318 422 294 c 0
 446 268 477 256 512 256 c 0
 547 256 578 268 602 294 c 0
 628 318 640 349 640 384 c 0
896 438 m 2
 896 328 l 2
 896 324 895 320 892 316 c 0
 889 312 886 310 882 310 c 2
 790 296 l 1
 783 278 777 262 770 250 c 1
 782 233 800 210 824 181 c 0
 827 177 828 173 828 168 c 0
 828 164 827 160 824 157 c 0
 815 145 798 127 774 103 c 0
 750 79 735 68 728 68 c 0
 724 68 719 69 714 72 c 2
 646 126 l 1
 631 118 616 112 600 107 c 1
 595 62 590 31 586 14 c 0
 583 5 577 0 568 0 c 2
 456 0 l 2
 452 0 448 1 444 4 c 0
 441 7 439 11 438 15 c 2
 424 107 l 1
 408 112 393 118 380 126 c 1
 309 72 l 2
 306 69 302 68 296 68 c 0
 292 68 288 69 284 73 c 0
 242 111 214 139 202 157 c 0
 199 160 198 164 198 168 c 0
 198 172 199 176 202 180 c 0
 207 187 216 198 228 213 c 0
 240 228 248 240 254 248 c 1
 246 265 239 282 234 298 c 1
 142 312 l 2
 138 312 135 314 132 318 c 0
 129 321 128 325 128 330 c 2
 128 440 l 2
 128 444 129 448 132 452 c 0
 135 456 138 458 142 458 c 2
 234 472 l 1
 239 488 246 503 254 518 c 1
 241 538 223 560 200 588 c 0
 197 592 196 596 196 600 c 0
 196 603 197 607 200 611 c 0
 209 623 225 641 249 665 c 0
 273 689 289 700 296 700 c 0
 301 700 305 699 310 696 c 2
 378 642 l 1
 393 650 408 656 424 661 c 1
 429 706 434 737 438 754 c 0
 441 763 447 768 456 768 c 2
 568 768 l 2
 572 768 576 767 580 764 c 0
 583 761 585 757 586 753 c 2
 600 661 l 1
 616 656 631 650 644 642 c 1
 716 696 l 2
 718 699 722 700 728 700 c 0
 732 700 736 699 740 696 c 0
 783 656 810 628 822 610 c 0
 825 608 826 604 826 600 c 0
 826 596 825 592 822 588 c 0
 817 581 808 570 796 555 c 0
 784 540 776 528 770 520 c 1
 778 503 785 486 790 470 c 1
 882 456 l 2
 886 456 889 454 892 450 c 0
 895 447 896 443 896 438 c 2
EndSplineSet
EndChar

StartChar: D
Encoding: 68 68 24
Width: 1024
Flags: W
LayerCount: 2
Fore
SplineSet
416 464 m 2
 416 176 l 2
 416 171 414 168 412 164 c 0
 408 162 405 160 400 160 c 2
 368 160 l 2
 363 160 360 162 356 164 c 0
 354 168 352 171 352 176 c 2
 352 464 l 2
 352 469 354 472 356 476 c 0
 360 478 363 480 368 480 c 2
 400 480 l 2
 405 480 408 478 412 476 c 0
 414 472 416 469 416 464 c 2
544 464 m 2
 544 176 l 2
 544 171 542 168 540 164 c 0
 536 162 533 160 528 160 c 2
 496 160 l 2
 491 160 488 162 484 164 c 0
 482 168 480 171 480 176 c 2
 480 464 l 2
 480 469 482 472 484 476 c 0
 488 478 491 480 496 480 c 2
 528 480 l 2
 533 480 536 478 540 476 c 0
 542 472 544 469 544 464 c 2
672 464 m 2
 672 176 l 2
 672 171 670 168 668 164 c 0
 664 162 661 160 656 160 c 2
 624 160 l 2
 619 160 616 162 612 164 c 0
 610 168 608 171 608 176 c 2
 608 464 l 2
 608 469 610 472 612 476 c 0
 616 478 619 480 624 480 c 2
 656 480 l 2
 661 480 664 478 668 476 c 0
 670 472 672 469 672 464 c 2
736 102 m 2
 736 576 l 1
 288 576 l 1
 288 102 l 2
 288 95 289 88 292 82 c 0
 294 76 296 71 299 68 c 0
 301 65 303 64 304 64 c 2
 720 64 l 2
 721 64 723 65 725 68 c 0
 728 71 730 76 732 82 c 0
 735 88 736 95 736 102 c 2
400 640 m 1
 624 640 l 1
 600 698 l 2
 598 702 595 703 592 704 c 2
 433 704 l 2
 430 703 427 702 424 698 c 2
 400 640 l 1
864 624 m 2
 864 592 l 2
 864 587 862 584 860 580 c 0
 856 578 853 576 848 576 c 2
 800 576 l 1
 800 102 l 2
 800 74 792 50 776 30 c 0
 761 10 742 0 720 0 c 2
 304 0 l 2
 282 0 263 10 248 29 c 0
 232 49 224 72 224 100 c 2
 224 576 l 1
 176 576 l 2
 171 576 168 578 164 580 c 0
 162 584 160 587 160 592 c 2
 160 624 l 2
 160 629 162 632 164 636 c 0
 168 638 171 640 176 640 c 2
 330 640 l 1
 366 724 l 2
 370 736 380 746 392 755 c 0
 406 764 419 768 432 768 c 2
 592 768 l 2
 605 768 618 764 632 755 c 0
 644 746 654 736 658 724 c 2
 694 640 l 1
 848 640 l 2
 853 640 856 638 860 636 c 0
 862 632 864 629 864 624 c 2
EndSplineSet
EndChar

StartChar: d
Encoding: 100 100 25
Width: 1024
Flags: W
LayerCount: 2
Fore
SplineSet
416 464 m 2
 416 176 l 2
 416 171 414 168 412 164 c 0
 408 162 405 160 400 160 c 2
 368 160 l 2
 363 160 360 162 356 164 c 0
 354 168 352 171 352 176 c 2
 352 464 l 2
 352 469 354 472 356 476 c 0
 360 478 363 480 368 480 c 2
 400 480 l 2
 405 480 408 478 412 476 c 0
 414 472 416 469 416 464 c 2
544 464 m 2
 544 176 l 2
 544 171 542 168 540 164 c 0
 536 162 533 160 528 160 c 2
 496 160 l 2
 491 160 488 162 484 164 c 0
 482 168 480 171 480 176 c 2
 480 464 l 2
 480 469 482 472 484 476 c 0
 488 478 491 480 496 480 c 2
 528 480 l 2
 533 480 536 478 540 476 c 0
 542 472 544 469 544 464 c 2
672 464 m 2
 672 176 l 2
 672 171 670 168 668 164 c 0
 664 162 661 160 656 160 c 2
 624 160 l 2
 619 160 616 162 612 164 c 0
 610 168 608 171 608 176 c 2
 608 464 l 2
 608 469 610 472 612 476 c 0
 616 478 619 480 624 480 c 2
 656 480 l 2
 661 480 664 478 668 476 c 0
 670 472 672 469 672 464 c 2
736 102 m 2
 736 576 l 1
 288 576 l 1
 288 102 l 2
 288 95 289 88 292 82 c 0
 294 76 296 71 299 68 c 0
 301 65 303 64 304 64 c 2
 720 64 l 2
 721 64 723 65 725 68 c 0
 728 71 730 76 732 82 c 0
 735 88 736 95 736 102 c 2
400 640 m 1
 624 640 l 1
 600 698 l 2
 598 702 595 703 592 704 c 2
 433 704 l 2
 430 703 427 702 424 698 c 2
 400 640 l 1
864 624 m 2
 864 592 l 2
 864 587 862 584 860 580 c 0
 856 578 853 576 848 576 c 2
 800 576 l 1
 800 102 l 2
 800 74 792 50 776 30 c 0
 761 10 742 0 720 0 c 2
 304 0 l 2
 282 0 263 10 248 29 c 0
 232 49 224 72 224 100 c 2
 224 576 l 1
 176 576 l 2
 171 576 168 578 164 580 c 0
 162 584 160 587 160 592 c 2
 160 624 l 2
 160 629 162 632 164 636 c 0
 168 638 171 640 176 640 c 2
 330 640 l 1
 366 724 l 2
 370 736 380 746 392 755 c 0
 406 764 419 768 432 768 c 2
 592 768 l 2
 605 768 618 764 632 755 c 0
 644 746 654 736 658 724 c 2
 694 640 l 1
 848 640 l 2
 853 640 856 638 860 636 c 0
 862 632 864 629 864 624 c 2
EndSplineSet
EndChar

StartChar: y
Encoding: 121 121 26
Width: 1024
Flags: W
LayerCount: 2
Fore
SplineSet
420 201 m 1
 662 326 l 1
 420 452 l 1
 420 201 l 1
512 632 m 0
 568 632 622 631 674 630 c 0
 726 628 765 627 789 625 c 2
 826 623 l 1
 826 623 829 623 834 622 c 0
 839 622 843 621 846 621 c 0
 848 620 852 620 857 618 c 0
 863 618 868 616 872 614 c 0
 876 613 880 611 886 608 c 0
 891 605 896 602 901 598 c 0
 906 594 911 590 916 585 c 0
 918 583 920 580 923 576 c 0
 926 572 931 562 938 546 c 0
 944 531 949 514 951 496 c 0
 954 475 956 452 957 428 c 0
 959 404 960 385 960 371 c 2
 960 351 l 1
 960 283 l 2
 960 235 957 186 951 138 c 0
 949 120 944 103 938 88 c 0
 932 73 927 63 922 58 c 2
 916 49 l 2
 911 44 906 40 901 36 c 0
 896 32 891 29 886 26 c 0
 880 24 876 22 872 20 c 0
 868 18 863 17 857 16 c 0
 852 15 848 14 845 14 c 0
 843 13 839 13 834 12 c 2
 826 12 l 1
 742 5 637 2 512 2 c 0
 443 3 383 4 332 5 c 0
 281 7 248 8 232 9 c 2
 208 11 l 1
 190 13 l 2
 178 15 168 16 162 18 c 0
 156 20 148 23 137 28 c 0
 126 34 116 41 108 49 c 0
 106 51 104 54 101 58 c 0
 98 62 93 72 86 88 c 0
 80 103 75 120 73 138 c 0
 70 159 68 182 67 206 c 0
 65 230 64 249 64 263 c 2
 64 283 l 1
 64 351 l 2
 64 399 67 448 73 496 c 0
 75 514 80 531 86 546 c 0
 92 561 97 571 102 576 c 2
 108 585 l 2
 113 590 118 594 123 598 c 0
 128 602 133 605 138 608 c 0
 144 611 148 613 152 614 c 0
 156 616 161 618 167 618 c 0
 172 620 176 620 178 621 c 0
 181 621 185 622 190 622 c 0
 195 623 198 623 198 623 c 1
 282 629 387 632 512 632 c 0
EndSplineSet
EndChar

StartChar: Y
Encoding: 89 89 27
Width: 1024
Flags: W
LayerCount: 2
Fore
SplineSet
420 201 m 1
 662 326 l 1
 420 452 l 1
 420 201 l 1
512 632 m 0
 568 632 622 631 674 630 c 0
 726 628 765 627 789 625 c 2
 826 623 l 1
 826 623 829 623 834 622 c 0
 839 622 843 621 846 621 c 0
 848 620 852 620 857 618 c 0
 863 618 868 616 872 614 c 0
 876 613 880 611 886 608 c 0
 891 605 896 602 901 598 c 0
 906 594 911 590 916 585 c 0
 918 583 920 580 923 576 c 0
 926 572 931 562 938 546 c 0
 944 531 949 514 951 496 c 0
 954 475 956 452 957 428 c 0
 959 404 960 385 960 371 c 2
 960 351 l 1
 960 283 l 2
 960 235 957 186 951 138 c 0
 949 120 944 103 938 88 c 0
 932 73 927 63 922 58 c 2
 916 49 l 2
 911 44 906 40 901 36 c 0
 896 32 891 29 886 26 c 0
 880 24 876 22 872 20 c 0
 868 18 863 17 857 16 c 0
 852 15 848 14 845 14 c 0
 843 13 839 13 834 12 c 2
 826 12 l 1
 742 5 637 2 512 2 c 0
 443 3 383 4 332 5 c 0
 281 7 248 8 232 9 c 2
 208 11 l 1
 190 13 l 2
 178 15 168 16 162 18 c 0
 156 20 148 23 137 28 c 0
 126 34 116 41 108 49 c 0
 106 51 104 54 101 58 c 0
 98 62 93 72 86 88 c 0
 80 103 75 120 73 138 c 0
 70 159 68 182 67 206 c 0
 65 230 64 249 64 263 c 2
 64 283 l 1
 64 351 l 2
 64 399 67 448 73 496 c 0
 75 514 80 531 86 546 c 0
 92 561 97 571 102 576 c 2
 108 585 l 2
 113 590 118 594 123 598 c 0
 128 602 133 605 138 608 c 0
 144 611 148 613 152 614 c 0
 156 616 161 618 167 618 c 0
 172 620 176 620 178 621 c 0
 181 621 185 622 190 622 c 0
 195 623 198 623 198 623 c 1
 282 629 387 632 512 632 c 0
EndSplineSet
EndChar

StartChar: z
Encoding: 122 122 28
Width: 1024
Flags: W
LayerCount: 2
Fore
SplineSet
960 115 m 1
 960 -77 l 1
 64 -77 l 1
 64 115 l 1
 79 115 93 117 106 122 c 0
 120 127 130 131 136 136 c 0
 142 140 150 146 160 154 c 0
 170 164 178 170 185 174 c 0
 192 177 202 179 214 179 c 0
 222 179 229 178 236 176 c 0
 242 173 247 171 251 168 c 0
 255 165 260 161 268 154 c 0
 277 146 285 140 291 136 c 0
 297 131 307 127 320 122 c 0
 333 117 348 115 363 115 c 0
 378 115 392 117 406 122 c 0
 419 127 428 132 434 136 c 0
 440 140 448 146 458 154 c 0
 466 161 471 165 475 168 c 0
 479 171 484 173 490 176 c 0
 497 178 504 179 512 179 c 0
 524 179 533 177 540 174 c 0
 547 170 556 164 566 154 c 0
 575 146 583 140 590 136 c 0
 596 131 606 127 619 122 c 0
 632 117 646 115 662 115 c 0
 676 115 691 117 704 122 c 0
 717 127 727 131 734 136 c 0
 740 140 748 146 757 154 c 0
 767 164 776 170 783 174 c 0
 790 177 799 179 811 179 c 0
 822 179 832 177 839 174 c 0
 846 170 854 164 864 154 c 0
 874 146 882 140 888 136 c 0
 894 131 904 127 918 122 c 0
 931 117 945 115 960 115 c 1
960 275 m 2
 960 179 l 1
 952 179 945 180 938 182 c 0
 931 185 926 187 922 190 c 0
 919 193 913 197 906 204 c 0
 896 212 888 218 882 222 c 0
 876 227 867 231 854 236 c 0
 840 241 826 243 811 243 c 0
 796 243 781 241 768 236 c 0
 755 231 745 227 739 222 c 0
 733 218 725 212 716 204 c 0
 708 197 703 193 699 190 c 0
 695 187 690 185 684 182 c 0
 677 180 670 179 662 179 c 0
 650 179 640 181 633 184 c 0
 626 188 618 194 608 204 c 0
 598 212 590 218 584 222 c 0
 578 227 568 231 555 236 c 0
 542 241 527 243 512 243 c 0
 497 243 483 241 470 236 c 0
 456 231 446 226 440 222 c 0
 434 218 426 212 416 204 c 0
 410 197 404 193 400 190 c 0
 396 187 391 185 385 182 c 0
 378 180 371 179 363 179 c 0
 351 179 342 181 335 184 c 0
 328 188 319 194 309 204 c 0
 300 212 292 218 286 222 c 0
 279 227 269 231 256 236 c 0
 243 241 228 243 214 243 c 0
 198 243 184 241 170 236 c 0
 157 231 148 227 142 222 c 0
 136 218 128 212 118 204 c 0
 108 194 99 188 92 184 c 0
 85 181 76 179 64 179 c 1
 64 275 l 2
 64 302 73 324 92 343 c 0
 111 362 133 371 160 371 c 2
 192 371 l 1
 192 595 l 1
 320 595 l 1
 320 371 l 1
 448 371 l 1
 448 595 l 1
 576 595 l 1
 576 371 l 1
 704 371 l 1
 704 595 l 1
 832 595 l 1
 832 371 l 1
 864 371 l 2
 891 371 913 362 932 343 c 0
 951 324 960 302 960 275 c 2
320 707 m 0
 320 681 314 662 302 648 c 0
 290 634 275 627 256 627 c 0
 238 627 223 633 211 646 c 0
 198 658 192 673 192 691 c 0
 192 701 194 709 197 716 c 0
 200 724 204 730 208 734 c 0
 213 738 218 742 224 748 c 0
 230 753 235 758 240 763 c 0
 244 768 248 776 251 786 c 0
 254 795 256 806 256 819 c 1
 269 819 282 807 298 782 c 0
 312 757 320 732 320 707 c 0
576 707 m 0
 576 681 570 662 558 648 c 0
 546 634 531 627 512 627 c 0
 494 627 479 633 467 646 c 0
 454 658 448 673 448 691 c 0
 448 701 450 709 453 716 c 0
 456 724 460 730 464 734 c 0
 469 738 474 742 480 748 c 0
 486 753 491 758 496 763 c 0
 500 768 504 776 507 786 c 0
 510 795 512 806 512 819 c 1
 525 819 538 807 554 782 c 0
 568 757 576 732 576 707 c 0
832 707 m 0
 832 681 826 662 814 648 c 0
 802 634 787 627 768 627 c 0
 750 627 735 633 723 646 c 0
 710 658 704 673 704 691 c 0
 704 701 706 709 709 716 c 0
 712 724 716 730 720 734 c 0
 725 738 730 742 736 748 c 0
 742 753 747 758 752 763 c 0
 756 768 760 776 763 786 c 0
 766 795 768 806 768 819 c 1
 781 819 794 807 810 782 c 0
 824 757 832 732 832 707 c 0
EndSplineSet
EndChar

StartChar: Z
Encoding: 90 90 29
Width: 1024
Flags: W
LayerCount: 2
Fore
SplineSet
960 115 m 1
 960 -77 l 1
 64 -77 l 1
 64 115 l 1
 79 115 93 117 106 122 c 0
 120 127 130 131 136 136 c 0
 142 140 150 146 160 154 c 0
 170 164 178 170 185 174 c 0
 192 177 202 179 214 179 c 0
 222 179 229 178 236 176 c 0
 242 173 247 171 251 168 c 0
 255 165 260 161 268 154 c 0
 277 146 285 140 291 136 c 0
 297 131 307 127 320 122 c 0
 333 117 348 115 363 115 c 0
 378 115 392 117 406 122 c 0
 419 127 428 132 434 136 c 0
 440 140 448 146 458 154 c 0
 466 161 471 165 475 168 c 0
 479 171 484 173 490 176 c 0
 497 178 504 179 512 179 c 0
 524 179 533 177 540 174 c 0
 547 170 556 164 566 154 c 0
 575 146 583 140 590 136 c 0
 596 131 606 127 619 122 c 0
 632 117 646 115 662 115 c 0
 676 115 691 117 704 122 c 0
 717 127 727 131 734 136 c 0
 740 140 748 146 757 154 c 0
 767 164 776 170 783 174 c 0
 790 177 799 179 811 179 c 0
 822 179 832 177 839 174 c 0
 846 170 854 164 864 154 c 0
 874 146 882 140 888 136 c 0
 894 131 904 127 918 122 c 0
 931 117 945 115 960 115 c 1
960 275 m 2
 960 179 l 1
 952 179 945 180 938 182 c 0
 931 185 926 187 922 190 c 0
 919 193 913 197 906 204 c 0
 896 212 888 218 882 222 c 0
 876 227 867 231 854 236 c 0
 840 241 826 243 811 243 c 0
 796 243 781 241 768 236 c 0
 755 231 745 227 739 222 c 0
 733 218 725 212 716 204 c 0
 708 197 703 193 699 190 c 0
 695 187 690 185 684 182 c 0
 677 180 670 179 662 179 c 0
 650 179 640 181 633 184 c 0
 626 188 618 194 608 204 c 0
 598 212 590 218 584 222 c 0
 578 227 568 231 555 236 c 0
 542 241 527 243 512 243 c 0
 497 243 483 241 470 236 c 0
 456 231 446 226 440 222 c 0
 434 218 426 212 416 204 c 0
 410 197 404 193 400 190 c 0
 396 187 391 185 385 182 c 0
 378 180 371 179 363 179 c 0
 351 179 342 181 335 184 c 0
 328 188 319 194 309 204 c 0
 300 212 292 218 286 222 c 0
 279 227 269 231 256 236 c 0
 243 241 228 243 214 243 c 0
 198 243 184 241 170 236 c 0
 157 231 148 227 142 222 c 0
 136 218 128 212 118 204 c 0
 108 194 99 188 92 184 c 0
 85 181 76 179 64 179 c 1
 64 275 l 2
 64 302 73 324 92 343 c 0
 111 362 133 371 160 371 c 2
 192 371 l 1
 192 595 l 1
 320 595 l 1
 320 371 l 1
 448 371 l 1
 448 595 l 1
 576 595 l 1
 576 371 l 1
 704 371 l 1
 704 595 l 1
 832 595 l 1
 832 371 l 1
 864 371 l 2
 891 371 913 362 932 343 c 0
 951 324 960 302 960 275 c 2
320 707 m 0
 320 681 314 662 302 648 c 0
 290 634 275 627 256 627 c 0
 238 627 223 633 211 646 c 0
 198 658 192 673 192 691 c 0
 192 701 194 709 197 716 c 0
 200 724 204 730 208 734 c 0
 213 738 218 742 224 748 c 0
 230 753 235 758 240 763 c 0
 244 768 248 776 251 786 c 0
 254 795 256 806 256 819 c 1
 269 819 282 807 298 782 c 0
 312 757 320 732 320 707 c 0
576 707 m 0
 576 681 570 662 558 648 c 0
 546 634 531 627 512 627 c 0
 494 627 479 633 467 646 c 0
 454 658 448 673 448 691 c 0
 448 701 450 709 453 716 c 0
 456 724 460 730 464 734 c 0
 469 738 474 742 480 748 c 0
 486 753 491 758 496 763 c 0
 500 768 504 776 507 786 c 0
 510 795 512 806 512 819 c 1
 525 819 538 807 554 782 c 0
 568 757 576 732 576 707 c 0
832 707 m 0
 832 681 826 662 814 648 c 0
 802 634 787 627 768 627 c 0
 750 627 735 633 723 646 c 0
 710 658 704 673 704 691 c 0
 704 701 706 709 709 716 c 0
 712 724 716 730 720 734 c 0
 725 738 730 742 736 748 c 0
 742 753 747 758 752 763 c 0
 756 768 760 776 763 786 c 0
 766 795 768 806 768 819 c 1
 781 819 794 807 810 782 c 0
 824 757 832 732 832 707 c 0
EndSplineSet
EndChar

StartChar: E
Encoding: 69 69 30
Width: 1024
Flags: W
LayerCount: 2
Fore
SplineSet
672 417 m 0
 672 479 650 531 606 575 c 0
 562 619 510 641 448 641 c 0
 386 641 334 619 290 575 c 0
 246 531 224 479 224 417 c 0
 224 355 246 303 290 259 c 0
 334 215 386 193 448 193 c 0
 510 193 562 215 606 259 c 0
 650 303 672 355 672 417 c 0
928 1 m 0
 928 -16 922 -31 909 -44 c 0
 896 -57 881 -63 864 -63 c 0
 846 -63 831 -57 819 -44 c 2
 648 127 l 1
 588 86 521 65 448 65 c 0
 400 65 355 74 311 93 c 0
 268 111 230 136 199 168 c 0
 167 199 142 237 124 280 c 0
 105 324 96 369 96 417 c 0
 96 465 105 510 124 554 c 0
 142 597 167 635 199 666 c 0
 230 698 268 723 311 741 c 0
 355 760 400 769 448 769 c 0
 496 769 541 760 585 741 c 0
 628 723 666 698 697 666 c 0
 729 635 754 597 772 554 c 0
 791 510 800 465 800 417 c 0
 800 344 779 277 738 218 c 1
 910 46 l 2
 922 34 928 19 928 1 c 0
EndSplineSet
EndChar

StartChar: O
Encoding: 79 79 31
Width: 1024
Flags: W
LayerCount: 2
Fore
SplineSet
576 560 m 2
 576 336 l 2
 576 331 574 328 572 324 c 0
 568 322 565 320 560 320 c 2
 400 320 l 2
 395 320 392 322 388 324 c 0
 386 328 384 331 384 336 c 2
 384 368 l 2
 384 373 386 376 388 380 c 0
 392 382 395 384 400 384 c 2
 512 384 l 1
 512 560 l 2
 512 565 514 568 516 572 c 0
 520 574 523 576 528 576 c 2
 560 576 l 2
 565 576 568 574 572 572 c 0
 574 568 576 565 576 560 c 2
784 384 m 0
 784 433 772 479 748 520 c 0
 723 562 690 595 648 620 c 0
 607 644 561 656 512 656 c 0
 463 656 417 644 376 620 c 0
 334 595 301 562 276 520 c 0
 252 479 240 433 240 384 c 0
 240 335 252 289 276 248 c 0
 301 206 334 173 376 148 c 0
 417 124 463 112 512 112 c 0
 561 112 607 124 648 148 c 0
 690 173 723 206 748 248 c 0
 772 289 784 335 784 384 c 0
896 384 m 0
 896 314 879 250 844 191 c 0
 810 132 764 86 705 52 c 0
 646 17 582 0 512 0 c 0
 442 0 378 17 319 52 c 0
 260 86 214 132 180 191 c 0
 145 250 128 314 128 384 c 0
 128 454 145 518 180 577 c 0
 214 636 260 682 319 716 c 0
 378 751 442 768 512 768 c 0
 582 768 646 751 705 716 c 0
 764 682 810 636 844 577 c 0
 879 518 896 454 896 384 c 0
EndSplineSet
EndChar

StartChar: o
Encoding: 111 111 32
Width: 1024
Flags: W
LayerCount: 2
Fore
SplineSet
576 560 m 2
 576 336 l 2
 576 331 574 328 572 324 c 0
 568 322 565 320 560 320 c 2
 400 320 l 2
 395 320 392 322 388 324 c 0
 386 328 384 331 384 336 c 2
 384 368 l 2
 384 373 386 376 388 380 c 0
 392 382 395 384 400 384 c 2
 512 384 l 1
 512 560 l 2
 512 565 514 568 516 572 c 0
 520 574 523 576 528 576 c 2
 560 576 l 2
 565 576 568 574 572 572 c 0
 574 568 576 565 576 560 c 2
784 384 m 0
 784 433 772 479 748 520 c 0
 723 562 690 595 648 620 c 0
 607 644 561 656 512 656 c 0
 463 656 417 644 376 620 c 0
 334 595 301 562 276 520 c 0
 252 479 240 433 240 384 c 0
 240 335 252 289 276 248 c 0
 301 206 334 173 376 148 c 0
 417 124 463 112 512 112 c 0
 561 112 607 124 648 148 c 0
 690 173 723 206 748 248 c 0
 772 289 784 335 784 384 c 0
896 384 m 0
 896 314 879 250 844 191 c 0
 810 132 764 86 705 52 c 0
 646 17 582 0 512 0 c 0
 442 0 378 17 319 52 c 0
 260 86 214 132 180 191 c 0
 145 250 128 314 128 384 c 0
 128 454 145 518 180 577 c 0
 214 636 260 682 319 716 c 0
 378 751 442 768 512 768 c 0
 582 768 646 751 705 716 c 0
 764 682 810 636 844 577 c 0
 879 518 896 454 896 384 c 0
EndSplineSet
EndChar

StartChar: R
Encoding: 82 82 33
Width: 1024
Flags: W
LayerCount: 2
Fore
SplineSet
915 594 m 0
 929 575 932 554 924 530 c 2
 787 76 l 2
 781 55 768 37 749 23 c 0
 730 8 709 1 687 1 c 2
 226 1 l 2
 200 1 176 10 152 28 c 0
 128 46 111 68 102 94 c 0
 94 116 94 137 101 157 c 0
 101 158 101 163 102 170 c 0
 103 178 104 184 104 189 c 0
 105 192 104 195 103 200 c 0
 102 204 101 208 101 210 c 0
 102 213 103 217 105 220 c 0
 107 223 110 227 114 232 c 0
 117 236 120 240 122 244 c 0
 130 256 137 271 144 289 c 0
 152 307 157 322 159 335 c 0
 160 338 161 343 160 350 c 0
 159 357 159 361 159 364 c 0
 160 368 163 372 168 378 c 0
 173 384 175 388 176 390 c 0
 183 402 190 417 197 436 c 0
 204 454 209 469 210 480 c 0
 210 484 210 489 209 496 c 0
 208 504 208 509 209 510 c 0
 210 515 214 520 220 526 c 0
 226 532 230 535 231 537 c 0
 237 546 244 560 252 579 c 0
 260 599 265 615 266 628 c 0
 266 630 266 634 264 640 c 0
 263 646 263 650 263 654 c 0
 264 656 266 659 268 662 c 0
 270 666 273 670 277 674 c 0
 281 678 283 682 285 684 c 0
 288 688 291 694 294 700 c 0
 297 706 299 712 301 717 c 0
 303 723 306 729 309 735 c 0
 312 742 316 747 319 751 c 0
 322 755 327 759 332 763 c 0
 338 767 344 769 350 769 c 0
 357 769 365 768 374 766 c 1
 373 764 l 1
 386 768 395 769 399 769 c 2
 779 769 l 2
 804 769 823 760 836 741 c 0
 850 722 853 701 845 676 c 2
 708 223 l 2
 696 183 685 158 673 146 c 0
 661 135 639 129 608 129 c 2
 174 129 l 2
 165 129 159 126 155 122 c 0
 151 116 151 109 154 100 c 0
 162 77 186 65 226 65 c 2
 688 65 l 2
 698 65 707 68 716 73 c 0
 725 78 731 85 733 94 c 2
 883 587 l 2
 886 594 887 604 886 616 c 1
 899 610 908 603 915 594 c 0
383 593 m 2
 382 589 382 585 384 582 c 0
 386 579 390 577 394 577 c 2
 698 577 l 2
 703 577 707 579 711 582 c 0
 715 585 718 589 719 593 c 2
 730 625 l 2
 731 629 731 633 729 636 c 0
 727 639 724 641 719 641 c 2
 415 641 l 2
 411 641 406 639 402 636 c 0
 398 633 395 629 394 625 c 2
 383 593 l 2
342 465 m 2
 341 461 341 457 343 454 c 0
 345 451 348 449 353 449 c 2
 657 449 l 2
 661 449 666 451 670 454 c 0
 674 457 677 461 678 465 c 2
 688 497 l 2
 690 501 689 505 687 508 c 0
 685 511 682 513 677 513 c 2
 373 513 l 2
 369 513 365 511 361 508 c 0
 357 505 354 501 352 497 c 2
 342 465 l 2
EndSplineSet
EndChar

StartChar: r
Encoding: 114 114 34
Width: 1024
Flags: W
LayerCount: 2
Fore
SplineSet
915 594 m 0
 929 575 932 554 924 530 c 2
 787 76 l 2
 781 55 768 37 749 23 c 0
 730 8 709 1 687 1 c 2
 226 1 l 2
 200 1 176 10 152 28 c 0
 128 46 111 68 102 94 c 0
 94 116 94 137 101 157 c 0
 101 158 101 163 102 170 c 0
 103 178 104 184 104 189 c 0
 105 192 104 195 103 200 c 0
 102 204 101 208 101 210 c 0
 102 213 103 217 105 220 c 0
 107 223 110 227 114 232 c 0
 117 236 120 240 122 244 c 0
 130 256 137 271 144 289 c 0
 152 307 157 322 159 335 c 0
 160 338 161 343 160 350 c 0
 159 357 159 361 159 364 c 0
 160 368 163 372 168 378 c 0
 173 384 175 388 176 390 c 0
 183 402 190 417 197 436 c 0
 204 454 209 469 210 480 c 0
 210 484 210 489 209 496 c 0
 208 504 208 509 209 510 c 0
 210 515 214 520 220 526 c 0
 226 532 230 535 231 537 c 0
 237 546 244 560 252 579 c 0
 260 599 265 615 266 628 c 0
 266 630 266 634 264 640 c 0
 263 646 263 650 263 654 c 0
 264 656 266 659 268 662 c 0
 270 666 273 670 277 674 c 0
 281 678 283 682 285 684 c 0
 288 688 291 694 294 700 c 0
 297 706 299 712 301 717 c 0
 303 723 306 729 309 735 c 0
 312 742 316 747 319 751 c 0
 322 755 327 759 332 763 c 0
 338 767 344 769 350 769 c 0
 357 769 365 768 374 766 c 1
 373 764 l 1
 386 768 395 769 399 769 c 2
 779 769 l 2
 804 769 823 760 836 741 c 0
 850 722 853 701 845 676 c 2
 708 223 l 2
 696 183 685 158 673 146 c 0
 661 135 639 129 608 129 c 2
 174 129 l 2
 165 129 159 126 155 122 c 0
 151 116 151 109 154 100 c 0
 162 77 186 65 226 65 c 2
 688 65 l 2
 698 65 707 68 716 73 c 0
 725 78 731 85 733 94 c 2
 883 587 l 2
 886 594 887 604 886 616 c 1
 899 610 908 603 915 594 c 0
383 593 m 2
 382 589 382 585 384 582 c 0
 386 579 390 577 394 577 c 2
 698 577 l 2
 703 577 707 579 711 582 c 0
 715 585 718 589 719 593 c 2
 730 625 l 2
 731 629 731 633 729 636 c 0
 727 639 724 641 719 641 c 2
 415 641 l 2
 411 641 406 639 402 636 c 0
 398 633 395 629 394 625 c 2
 383 593 l 2
342 465 m 2
 341 461 341 457 343 454 c 0
 345 451 348 449 353 449 c 2
 657 449 l 2
 661 449 666 451 670 454 c 0
 674 457 677 461 678 465 c 2
 688 497 l 2
 690 501 689 505 687 508 c 0
 685 511 682 513 677 513 c 2
 373 513 l 2
 369 513 365 511 361 508 c 0
 357 505 354 501 352 497 c 2
 342 465 l 2
EndSplineSet
EndChar

StartChar: I
Encoding: 73 73 35
Width: 1024
Flags: W
LayerCount: 2
Fore
SplineSet
624 545 m 0
 624 541 622 537 619 534 c 0
 616 531 612 529 608 529 c 0
 604 529 600 531 597 534 c 0
 594 537 592 541 592 545 c 0
 592 560 583 572 565 580 c 0
 547 589 529 593 512 593 c 0
 508 593 504 595 501 598 c 0
 498 601 496 605 496 609 c 0
 496 613 498 617 501 620 c 0
 504 623 508 625 512 625 c 0
 529 625 545 622 562 617 c 0
 578 612 593 603 605 590 c 0
 618 577 624 562 624 545 c 0
704 545 m 0
 704 569 698 591 687 612 c 0
 675 633 660 650 642 663 c 0
 623 676 603 686 580 694 c 0
 558 701 535 705 512 705 c 0
 489 705 466 701 444 694 c 0
 421 686 401 676 382 663 c 0
 364 650 349 633 337 612 c 0
 326 591 320 569 320 545 c 0
 320 511 331 481 354 455 c 0
 357 451 362 446 369 438 c 0
 376 431 381 426 384 422 c 0
 427 371 451 321 455 273 c 1
 569 273 l 1
 573 321 597 371 640 422 c 0
 643 426 648 431 655 438 c 0
 662 446 667 451 670 455 c 0
 693 481 704 511 704 545 c 0
768 545 m 0
 768 493 751 449 716 411 c 0
 702 395 689 380 679 368 c 0
 669 355 660 339 650 320 c 0
 640 301 634 283 632 266 c 1
 648 257 656 243 656 225 c 0
 656 213 652 202 644 193 c 1
 652 184 656 173 656 161 c 0
 656 144 648 130 634 120 c 1
 638 113 640 105 640 97 c 0
 640 82 635 70 624 62 c 0
 614 53 601 49 586 49 c 1
 579 34 569 23 556 14 c 0
 542 5 528 1 512 1 c 0
 496 1 482 5 468 14 c 0
 455 23 445 34 438 49 c 1
 423 49 410 53 400 62 c 0
 389 70 384 82 384 97 c 0
 384 105 386 113 390 120 c 1
 376 130 368 144 368 161 c 0
 368 173 372 184 380 193 c 1
 372 202 368 213 368 225 c 0
 368 243 376 257 392 266 c 1
 390 283 384 301 374 320 c 0
 364 339 355 355 345 368 c 0
 335 380 322 395 308 411 c 0
 273 449 256 493 256 545 c 0
 256 578 263 609 278 637 c 0
 293 666 313 689 337 708 c 0
 361 727 388 742 419 753 c 0
 449 764 480 769 512 769 c 0
 544 769 575 764 605 753 c 0
 636 742 663 727 687 708 c 0
 711 689 731 666 746 637 c 0
 761 609 768 578 768 545 c 0
EndSplineSet
EndChar

StartChar: i
Encoding: 105 105 36
Width: 1024
Flags: W
LayerCount: 2
Fore
SplineSet
624 545 m 0
 624 541 622 537 619 534 c 0
 616 531 612 529 608 529 c 0
 604 529 600 531 597 534 c 0
 594 537 592 541 592 545 c 0
 592 560 583 572 565 580 c 0
 547 589 529 593 512 593 c 0
 508 593 504 595 501 598 c 0
 498 601 496 605 496 609 c 0
 496 613 498 617 501 620 c 0
 504 623 508 625 512 625 c 0
 529 625 545 622 562 617 c 0
 578 612 593 603 605 590 c 0
 618 577 624 562 624 545 c 0
704 545 m 0
 704 569 698 591 687 612 c 0
 675 633 660 650 642 663 c 0
 623 676 603 686 580 694 c 0
 558 701 535 705 512 705 c 0
 489 705 466 701 444 694 c 0
 421 686 401 676 382 663 c 0
 364 650 349 633 337 612 c 0
 326 591 320 569 320 545 c 0
 320 511 331 481 354 455 c 0
 357 451 362 446 369 438 c 0
 376 431 381 426 384 422 c 0
 427 371 451 321 455 273 c 1
 569 273 l 1
 573 321 597 371 640 422 c 0
 643 426 648 431 655 438 c 0
 662 446 667 451 670 455 c 0
 693 481 704 511 704 545 c 0
768 545 m 0
 768 493 751 449 716 411 c 0
 702 395 689 380 679 368 c 0
 669 355 660 339 650 320 c 0
 640 301 634 283 632 266 c 1
 648 257 656 243 656 225 c 0
 656 213 652 202 644 193 c 1
 652 184 656 173 656 161 c 0
 656 144 648 130 634 120 c 1
 638 113 640 105 640 97 c 0
 640 82 635 70 624 62 c 0
 614 53 601 49 586 49 c 1
 579 34 569 23 556 14 c 0
 542 5 528 1 512 1 c 0
 496 1 482 5 468 14 c 0
 455 23 445 34 438 49 c 1
 423 49 410 53 400 62 c 0
 389 70 384 82 384 97 c 0
 384 105 386 113 390 120 c 1
 376 130 368 144 368 161 c 0
 368 173 372 184 380 193 c 1
 372 202 368 213 368 225 c 0
 368 243 376 257 392 266 c 1
 390 283 384 301 374 320 c 0
 364 339 355 355 345 368 c 0
 335 380 322 395 308 411 c 0
 273 449 256 493 256 545 c 0
 256 578 263 609 278 637 c 0
 293 666 313 689 337 708 c 0
 361 727 388 742 419 753 c 0
 449 764 480 769 512 769 c 0
 544 769 575 764 605 753 c 0
 636 742 663 727 687 708 c 0
 711 689 731 666 746 637 c 0
 761 609 768 578 768 545 c 0
EndSplineSet
EndChar

StartChar: h
Encoding: 104 104 37
Width: 1024
Flags: W
LayerCount: 2
Fore
SplineSet
896 384 m 0
 896 332 886 282 866 235 c 0
 845 188 818 147 784 112 c 0
 749 78 708 51 661 30 c 0
 614 10 564 0 512 0 c 0
 455 0 400 12 348 36 c 0
 297 60 253 94 216 138 c 0
 214 142 213 146 213 150 c 0
 213 154 215 157 218 160 c 2
 286 229 l 2
 289 232 294 234 298 234 c 0
 304 233 308 231 310 228 c 0
 334 196 364 171 400 154 c 0
 435 137 472 128 512 128 c 0
 547 128 580 135 611 148 c 0
 643 162 670 180 693 203 c 0
 716 226 734 253 748 285 c 0
 761 316 768 349 768 384 c 0
 768 419 761 452 748 483 c 0
 734 515 716 542 693 565 c 0
 670 588 643 606 611 620 c 0
 580 633 547 640 512 640 c 0
 479 640 448 634 418 622 c 0
 388 610 361 594 338 572 c 1
 406 502 l 2
 417 492 419 481 414 468 c 0
 408 455 398 448 384 448 c 2
 160 448 l 2
 151 448 144 451 138 458 c 0
 131 464 128 471 128 480 c 2
 128 704 l 2
 128 718 135 728 148 734 c 0
 161 739 172 737 182 726 c 2
 248 662 l 1
 283 696 324 722 370 740 c 0
 416 759 463 768 512 768 c 0
 564 768 614 758 661 738 c 0
 708 717 749 690 784 656 c 0
 818 621 845 580 866 533 c 0
 886 486 896 436 896 384 c 0
EndSplineSet
EndChar

StartChar: J
Encoding: 74 74 38
Width: 1024
Flags: W
LayerCount: 2
Fore
SplineSet
862 629 m 2
 871 620 879 607 886 591 c 0
 893 575 896 560 896 547 c 2
 896 -29 l 2
 896 -42 891 -54 882 -63 c 0
 873 -72 861 -77 848 -77 c 2
 176 -77 l 2
 163 -77 151 -72 142 -63 c 0
 133 -54 128 -42 128 -29 c 2
 128 771 l 2
 128 784 133 796 142 805 c 0
 151 814 163 819 176 819 c 2
 624 819 l 2
 637 819 652 816 668 809 c 0
 684 802 697 794 706 785 c 2
 862 629 l 2
640 751 m 1
 640 563 l 1
 828 563 l 1
 825 573 821 580 817 584 c 2
 660 740 l 2
 656 744 650 748 640 751 c 1
832 -13 m 1
 832 499 l 1
 624 499 l 2
 611 499 599 504 590 513 c 0
 581 522 576 534 576 547 c 2
 576 755 l 1
 192 755 l 1
 192 -13 l 1
 832 -13 l 1
EndSplineSet
EndChar

StartChar: K
Encoding: 75 75 39
Width: 1024
Flags: W
LayerCount: 2
Fore
SplineSet
862 629 m 2
 871 620 879 607 886 591 c 0
 893 575 896 560 896 547 c 2
 896 -29 l 2
 896 -42 891 -54 882 -63 c 0
 873 -72 861 -77 848 -77 c 2
 176 -77 l 2
 163 -77 151 -72 142 -63 c 0
 133 -54 128 -42 128 -29 c 2
 128 771 l 2
 128 784 133 796 142 805 c 0
 151 814 163 819 176 819 c 2
 624 819 l 2
 637 819 652 816 668 809 c 0
 684 802 697 794 706 785 c 2
 862 629 l 2
640 751 m 1
 640 563 l 1
 828 563 l 1
 825 573 821 580 817 584 c 2
 660 740 l 2
 656 744 650 748 640 751 c 1
832 -13 m 1
 832 499 l 1
 624 499 l 2
 611 499 599 504 590 513 c 0
 581 522 576 534 576 547 c 2
 576 755 l 1
 192 755 l 1
 192 -13 l 1
 832 -13 l 1
320 419 m 2
 320 424 322 428 324 430 c 0
 328 434 331 435 336 435 c 2
 688 435 l 2
 693 435 696 434 700 430 c 0
 702 428 704 424 704 419 c 2
 704 387 l 2
 704 382 702 378 700 376 c 0
 696 372 693 371 688 371 c 2
 336 371 l 2
 331 371 328 372 324 376 c 0
 322 378 320 382 320 387 c 2
 320 419 l 2
688 307 m 2
 693 307 696 306 700 302 c 0
 702 300 704 296 704 291 c 2
 704 259 l 2
 704 254 702 250 700 248 c 0
 696 244 693 243 688 243 c 2
 336 243 l 2
 331 243 328 244 324 248 c 0
 322 250 320 254 320 259 c 2
 320 291 l 2
 320 296 322 300 324 302 c 0
 328 306 331 307 336 307 c 2
 688 307 l 2
688 179 m 2
 693 179 696 178 700 174 c 0
 702 172 704 168 704 163 c 2
 704 131 l 2
 704 126 702 122 700 120 c 0
 696 116 693 115 688 115 c 2
 336 115 l 2
 331 115 328 116 324 120 c 0
 322 122 320 126 320 131 c 2
 320 163 l 2
 320 168 322 172 324 174 c 0
 328 178 331 179 336 179 c 2
 688 179 l 2
EndSplineSet
EndChar

StartChar: e
Encoding: 101 101 40
Width: 1024
Flags: W
LayerCount: 2
Fore
SplineSet
672 417 m 0
 672 479 650 531 606 575 c 0
 562 619 510 641 448 641 c 0
 386 641 334 619 290 575 c 0
 246 531 224 479 224 417 c 0
 224 355 246 303 290 259 c 0
 334 215 386 193 448 193 c 0
 510 193 562 215 606 259 c 0
 650 303 672 355 672 417 c 0
928 1 m 0
 928 -16 922 -31 909 -44 c 0
 896 -57 881 -63 864 -63 c 0
 846 -63 831 -57 819 -44 c 2
 648 127 l 1
 588 86 521 65 448 65 c 0
 400 65 355 74 311 93 c 0
 268 111 230 136 199 168 c 0
 167 199 142 237 124 280 c 0
 105 324 96 369 96 417 c 0
 96 465 105 510 124 554 c 0
 142 597 167 635 199 666 c 0
 230 698 268 723 311 741 c 0
 355 760 400 769 448 769 c 0
 496 769 541 760 585 741 c 0
 628 723 666 698 697 666 c 0
 729 635 754 597 772 554 c 0
 791 510 800 465 800 417 c 0
 800 344 779 277 738 218 c 1
 910 46 l 2
 922 34 928 19 928 1 c 0
EndSplineSet
EndChar

StartChar: U
Encoding: 85 85 41
Width: 1024
Flags: W
LayerCount: 2
Fore
SplineSet
720 639 m 2
 304 639 l 2
 282 639 263 631 248 616 c 0
 232 600 224 581 224 559 c 2
 224 143 l 2
 224 121 232 102 248 86 c 0
 263 71 282 63 304 63 c 2
 720 63 l 2
 742 63 761 71 776 86 c 0
 792 102 800 121 800 143 c 2
 800 559 l 2
 800 581 792 600 776 616 c 0
 761 631 742 639 720 639 c 2
864 559 m 2
 864 143 l 2
 864 103 850 69 822 41 c 0
 794 13 760 -1 720 -1 c 2
 304 -1 l 2
 264 -1 230 13 202 41 c 0
 174 69 160 103 160 143 c 2
 160 559 l 2
 160 599 174 633 202 661 c 0
 230 689 264 703 304 703 c 2
 720 703 l 2
 760 703 794 689 822 661 c 0
 850 633 864 599 864 559 c 2
EndSplineSet
EndChar

StartChar: j
Encoding: 106 106 42
Width: 1024
Flags: W
LayerCount: 2
Fore
SplineSet
862 629 m 2
 871 620 879 607 886 591 c 0
 893 575 896 560 896 547 c 2
 896 -29 l 2
 896 -42 891 -54 882 -63 c 0
 873 -72 861 -77 848 -77 c 2
 176 -77 l 2
 163 -77 151 -72 142 -63 c 0
 133 -54 128 -42 128 -29 c 2
 128 771 l 2
 128 784 133 796 142 805 c 0
 151 814 163 819 176 819 c 2
 624 819 l 2
 637 819 652 816 668 809 c 0
 684 802 697 794 706 785 c 2
 862 629 l 2
640 751 m 1
 640 563 l 1
 828 563 l 1
 825 573 821 580 817 584 c 2
 660 740 l 2
 656 744 650 748 640 751 c 1
832 -13 m 1
 832 499 l 1
 624 499 l 2
 611 499 599 504 590 513 c 0
 581 522 576 534 576 547 c 2
 576 755 l 1
 192 755 l 1
 192 -13 l 1
 832 -13 l 1
EndSplineSet
EndChar

StartChar: k
Encoding: 107 107 43
Width: 1024
Flags: W
LayerCount: 2
Fore
SplineSet
862 629 m 2
 871 620 879 607 886 591 c 0
 893 575 896 560 896 547 c 2
 896 -29 l 2
 896 -42 891 -54 882 -63 c 0
 873 -72 861 -77 848 -77 c 2
 176 -77 l 2
 163 -77 151 -72 142 -63 c 0
 133 -54 128 -42 128 -29 c 2
 128 771 l 2
 128 784 133 796 142 805 c 0
 151 814 163 819 176 819 c 2
 624 819 l 2
 637 819 652 816 668 809 c 0
 684 802 697 794 706 785 c 2
 862 629 l 2
640 751 m 1
 640 563 l 1
 828 563 l 1
 825 573 821 580 817 584 c 2
 660 740 l 2
 656 744 650 748 640 751 c 1
832 -13 m 1
 832 499 l 1
 624 499 l 2
 611 499 599 504 590 513 c 0
 581 522 576 534 576 547 c 2
 576 755 l 1
 192 755 l 1
 192 -13 l 1
 832 -13 l 1
320 419 m 2
 320 424 322 428 324 430 c 0
 328 434 331 435 336 435 c 2
 688 435 l 2
 693 435 696 434 700 430 c 0
 702 428 704 424 704 419 c 2
 704 387 l 2
 704 382 702 378 700 376 c 0
 696 372 693 371 688 371 c 2
 336 371 l 2
 331 371 328 372 324 376 c 0
 322 378 320 382 320 387 c 2
 320 419 l 2
688 307 m 2
 693 307 696 306 700 302 c 0
 702 300 704 296 704 291 c 2
 704 259 l 2
 704 254 702 250 700 248 c 0
 696 244 693 243 688 243 c 2
 336 243 l 2
 331 243 328 244 324 248 c 0
 322 250 320 254 320 259 c 2
 320 291 l 2
 320 296 322 300 324 302 c 0
 328 306 331 307 336 307 c 2
 688 307 l 2
688 179 m 2
 693 179 696 178 700 174 c 0
 702 172 704 168 704 163 c 2
 704 131 l 2
 704 126 702 122 700 120 c 0
 696 116 693 115 688 115 c 2
 336 115 l 2
 331 115 328 116 324 120 c 0
 322 122 320 126 320 131 c 2
 320 163 l 2
 320 168 322 172 324 174 c 0
 328 178 331 179 336 179 c 2
 688 179 l 2
EndSplineSet
EndChar

StartChar: x
Encoding: 120 120 44
Width: 1024
Flags: W
LayerCount: 2
Fore
SplineSet
160 27 m 1
 304 27 l 1
 304 171 l 1
 160 171 l 1
 160 27 l 1
336 27 m 1
 496 27 l 1
 496 171 l 1
 336 171 l 1
 336 27 l 1
160 203 m 1
 304 203 l 1
 304 363 l 1
 160 363 l 1
 160 203 l 1
336 203 m 1
 496 203 l 1
 496 363 l 1
 336 363 l 1
 336 203 l 1
160 395 m 1
 304 395 l 1
 304 539 l 1
 160 539 l 1
 160 395 l 1
528 27 m 1
 688 27 l 1
 688 171 l 1
 528 171 l 1
 528 27 l 1
336 395 m 1
 496 395 l 1
 496 539 l 1
 336 539 l 1
 336 395 l 1
720 27 m 1
 864 27 l 1
 864 171 l 1
 720 171 l 1
 720 27 l 1
528 203 m 1
 688 203 l 1
 688 363 l 1
 528 363 l 1
 528 203 l 1
352 635 m 2
 352 779 l 2
 352 783 350 787 347 790 c 0
 344 793 340 795 336 795 c 2
 304 795 l 2
 300 795 296 793 293 790 c 0
 290 787 288 783 288 779 c 2
 288 635 l 2
 288 631 290 627 293 624 c 0
 296 621 300 619 304 619 c 2
 336 619 l 2
 340 619 344 621 347 624 c 0
 350 627 352 631 352 635 c 2
720 203 m 1
 864 203 l 1
 864 363 l 1
 720 363 l 1
 720 203 l 1
528 395 m 1
 688 395 l 1
 688 539 l 1
 528 539 l 1
 528 395 l 1
720 395 m 1
 864 395 l 1
 864 539 l 1
 720 539 l 1
 720 395 l 1
736 635 m 2
 736 779 l 2
 736 783 734 787 731 790 c 0
 728 793 724 795 720 795 c 2
 688 795 l 2
 684 795 680 793 677 790 c 0
 674 787 672 783 672 779 c 2
 672 635 l 2
 672 631 674 627 677 624 c 0
 680 621 684 619 688 619 c 2
 720 619 l 2
 724 619 728 621 731 624 c 0
 734 627 736 631 736 635 c 2
928 667 m 2
 928 27 l 2
 928 10 922 -5 909 -18 c 0
 896 -31 881 -37 864 -37 c 2
 160 -37 l 2
 143 -37 128 -31 115 -18 c 0
 102 -5 96 10 96 27 c 2
 96 667 l 2
 96 684 102 699 115 712 c 0
 128 725 143 731 160 731 c 2
 224 731 l 1
 224 779 l 2
 224 801 232 820 248 836 c 0
 263 851 282 859 304 859 c 2
 336 859 l 2
 358 859 377 851 392 836 c 0
 408 820 416 801 416 779 c 2
 416 731 l 1
 608 731 l 1
 608 779 l 2
 608 801 616 820 632 836 c 0
 647 851 666 859 688 859 c 2
 720 859 l 2
 742 859 761 851 776 836 c 0
 792 820 800 801 800 779 c 2
 800 731 l 1
 864 731 l 2
 881 731 896 725 909 712 c 0
 922 699 928 684 928 667 c 2
EndSplineSet
EndChar

StartChar: X
Encoding: 88 88 45
Width: 1024
Flags: W
LayerCount: 2
Fore
SplineSet
160 -13 m 1
 304 -13 l 1
 304 131 l 1
 160 131 l 1
 160 -13 l 1
336 -13 m 1
 496 -13 l 1
 496 131 l 1
 336 131 l 1
 336 -13 l 1
160 163 m 1
 304 163 l 1
 304 323 l 1
 160 323 l 1
 160 163 l 1
336 163 m 1
 496 163 l 1
 496 323 l 1
 336 323 l 1
 336 163 l 1
160 355 m 1
 304 355 l 1
 304 499 l 1
 160 499 l 1
 160 355 l 1
528 -13 m 1
 688 -13 l 1
 688 131 l 1
 528 131 l 1
 528 -13 l 1
336 355 m 1
 496 355 l 1
 496 499 l 1
 336 499 l 1
 336 355 l 1
720 -13 m 1
 864 -13 l 1
 864 131 l 1
 720 131 l 1
 720 -13 l 1
528 163 m 1
 688 163 l 1
 688 323 l 1
 528 323 l 1
 528 163 l 1
352 595 m 2
 352 739 l 2
 352 743 350 747 347 750 c 0
 344 753 340 755 336 755 c 2
 304 755 l 2
 300 755 296 753 293 750 c 0
 290 747 288 743 288 739 c 2
 288 595 l 2
 288 591 290 587 293 584 c 0
 296 581 300 579 304 579 c 2
 336 579 l 2
 340 579 344 581 347 584 c 0
 350 587 352 591 352 595 c 2
720 163 m 1
 864 163 l 1
 864 323 l 1
 720 323 l 1
 720 163 l 1
528 355 m 1
 688 355 l 1
 688 499 l 1
 528 499 l 1
 528 355 l 1
720 355 m 1
 864 355 l 1
 864 499 l 1
 720 499 l 1
 720 355 l 1
736 595 m 2
 736 739 l 2
 736 743 734 747 731 750 c 0
 728 753 724 755 720 755 c 2
 688 755 l 2
 684 755 680 753 677 750 c 0
 674 747 672 743 672 739 c 2
 672 595 l 2
 672 591 674 587 677 584 c 0
 680 581 684 579 688 579 c 2
 720 579 l 2
 724 579 728 581 731 584 c 0
 734 587 736 591 736 595 c 2
928 627 m 2
 928 -13 l 2
 928 -30 922 -45 909 -58 c 0
 896 -71 881 -77 864 -77 c 2
 160 -77 l 2
 143 -77 128 -71 115 -58 c 0
 102 -45 96 -30 96 -13 c 2
 96 627 l 2
 96 644 102 659 115 672 c 0
 128 685 143 691 160 691 c 2
 224 691 l 1
 224 739 l 2
 224 761 232 780 248 796 c 0
 263 811 282 819 304 819 c 2
 336 819 l 2
 358 819 377 811 392 796 c 0
 408 780 416 761 416 739 c 2
 416 691 l 1
 608 691 l 1
 608 739 l 2
 608 761 616 780 632 796 c 0
 647 811 666 819 688 819 c 2
 720 819 l 2
 742 819 761 811 776 796 c 0
 792 780 800 761 800 739 c 2
 800 691 l 1
 864 691 l 2
 881 691 896 685 909 672 c 0
 922 659 928 644 928 627 c 2
EndSplineSet
EndChar

StartChar: u
Encoding: 117 117 46
Width: 1024
Flags: W
LayerCount: 2
Fore
SplineSet
720 640 m 2
 304 640 l 2
 282 640 263 632 248 616 c 0
 232 601 224 582 224 560 c 2
 224 144 l 2
 224 122 232 103 248 88 c 0
 263 72 282 64 304 64 c 2
 720 64 l 2
 742 64 761 72 776 88 c 0
 792 103 800 122 800 144 c 2
 800 560 l 2
 800 582 792 601 776 616 c 0
 761 632 742 640 720 640 c 2
864 560 m 2
 864 144 l 2
 864 104 850 70 822 42 c 0
 794 14 760 0 720 0 c 2
 304 0 l 2
 264 0 230 14 202 42 c 0
 174 70 160 104 160 144 c 2
 160 560 l 2
 160 600 174 634 202 662 c 0
 230 690 264 704 304 704 c 2
 720 704 l 2
 760 704 794 690 822 662 c 0
 850 634 864 600 864 560 c 2
EndSplineSet
EndChar

StartChar: v
Encoding: 118 118 47
Width: 1024
Flags: W
LayerCount: 2
Fore
SplineSet
800 303 m 2
 800 144 l 2
 800 104 786 70 758 42 c 0
 730 14 696 0 656 0 c 2
 240 0 l 2
 201 0 167 14 138 42 c 0
 110 70 96 104 96 144 c 2
 96 560 l 2
 96 600 110 634 138 662 c 0
 167 690 201 704 240 704 c 2
 656 704 l 2
 677 704 697 700 715 692 c 0
 720 689 723 685 724 680 c 0
 725 674 723 670 719 666 c 2
 695 641 l 2
 691 638 688 636 683 636 c 0
 682 636 681 636 679 637 c 0
 671 639 664 640 656 640 c 2
 240 640 l 2
 218 640 199 632 184 616 c 0
 168 601 160 582 160 560 c 2
 160 144 l 2
 160 122 168 103 184 88 c 0
 199 72 218 64 240 64 c 2
 656 64 l 2
 678 64 697 72 713 88 c 0
 728 103 736 122 736 144 c 2
 736 271 l 2
 736 275 738 279 741 282 c 2
 773 314 l 2
 776 317 780 319 784 319 c 0
 786 319 788 318 790 318 c 0
 797 315 800 310 800 303 c 2
916 548 m 2
 509 140 l 2
 501 132 491 128 480 128 c 0
 469 128 460 132 452 140 c 2
 237 356 l 2
 229 364 225 373 225 384 c 0
 225 395 229 404 237 412 c 2
 292 468 l 2
 300 476 309 480 320 480 c 0
 331 480 341 476 349 468 c 2
 480 336 l 1
 804 660 l 2
 812 668 821 672 832 672 c 0
 843 672 853 668 861 660 c 2
 916 604 l 2
 924 596 928 587 928 576 c 0
 928 565 924 556 916 548 c 2
EndSplineSet
EndChar

StartChar: s
Encoding: 115 115 48
Width: 1024
Flags: W
LayerCount: 2
Fore
SplineSet
340 186 m 2
 316 161 l 2
 312 158 308 156 304 156 c 0
 300 156 296 158 292 161 c 2
 60 394 l 2
 56 398 54 401 54 406 c 0
 54 410 56 414 60 417 c 2
 292 650 l 2
 296 654 300 655 304 655 c 0
 308 655 312 654 316 650 c 2
 340 625 l 2
 344 622 346 618 346 614 c 0
 346 609 344 606 340 602 c 2
 144 406 l 1
 340 209 l 2
 344 206 346 202 346 198 c 0
 346 193 344 190 340 186 c 2
636 720 m 2
 450 74 l 2
 448 70 446 67 442 64 c 0
 438 62 434 62 430 63 c 2
 399 72 l 2
 395 73 391 76 389 79 c 0
 387 83 387 87 388 92 c 2
 574 737 l 2
 576 742 578 745 582 747 c 0
 586 749 590 750 594 748 c 2
 625 740 l 2
 629 738 633 736 635 732 c 0
 637 728 637 724 636 720 c 2
964 394 m 2
 732 161 l 2
 728 158 724 156 720 156 c 0
 716 156 712 158 708 161 c 2
 684 186 l 2
 680 190 678 193 678 198 c 0
 678 202 680 206 684 209 c 2
 880 406 l 1
 684 602 l 2
 680 606 678 609 678 614 c 0
 678 618 680 622 684 625 c 2
 708 650 l 2
 712 654 716 655 720 655 c 0
 724 655 728 654 732 650 c 2
 964 417 l 2
 968 414 970 410 970 406 c 0
 970 401 968 398 964 394 c 2
EndSplineSet
EndChar

StartChar: S
Encoding: 83 83 49
Width: 1024
Flags: W
LayerCount: 2
Fore
SplineSet
340 186 m 2
 316 161 l 2
 312 158 308 156 304 156 c 0
 300 156 296 158 292 161 c 2
 60 394 l 2
 56 398 54 401 54 406 c 0
 54 410 56 414 60 417 c 2
 292 650 l 2
 296 654 300 655 304 655 c 0
 308 655 312 654 316 650 c 2
 340 625 l 2
 344 622 346 618 346 614 c 0
 346 609 344 606 340 602 c 2
 144 406 l 1
 340 209 l 2
 344 206 346 202 346 198 c 0
 346 193 344 190 340 186 c 2
636 720 m 2
 450 74 l 2
 448 70 446 67 442 64 c 0
 438 62 434 62 430 63 c 2
 399 72 l 2
 395 73 391 76 389 79 c 0
 387 83 387 87 388 92 c 2
 574 737 l 2
 576 742 578 745 582 747 c 0
 586 749 590 750 594 748 c 2
 625 740 l 2
 629 738 633 736 635 732 c 0
 637 728 637 724 636 720 c 2
964 394 m 2
 732 161 l 2
 728 158 724 156 720 156 c 0
 716 156 712 158 708 161 c 2
 684 186 l 2
 680 190 678 193 678 198 c 0
 678 202 680 206 684 209 c 2
 880 406 l 1
 684 602 l 2
 680 606 678 609 678 614 c 0
 678 618 680 622 684 625 c 2
 708 650 l 2
 712 654 716 655 720 655 c 0
 724 655 728 654 732 650 c 2
 964 417 l 2
 968 414 970 410 970 406 c 0
 970 401 968 398 964 394 c 2
EndSplineSet
EndChar

StartChar: V
Encoding: 86 86 50
Width: 1024
Flags: W
LayerCount: 2
Fore
SplineSet
800 303 m 2
 800 144 l 2
 800 104 786 70 758 42 c 0
 730 14 696 0 656 0 c 2
 240 0 l 2
 201 0 167 14 138 42 c 0
 110 70 96 104 96 144 c 2
 96 560 l 2
 96 600 110 634 138 662 c 0
 167 690 201 704 240 704 c 2
 656 704 l 2
 677 704 697 700 715 692 c 0
 720 689 723 685 724 680 c 0
 725 674 723 670 719 666 c 2
 695 641 l 2
 691 638 688 636 683 636 c 0
 682 636 681 636 679 637 c 0
 671 639 664 640 656 640 c 2
 240 640 l 2
 218 640 199 632 184 616 c 0
 168 601 160 582 160 560 c 2
 160 144 l 2
 160 122 168 103 184 88 c 0
 199 72 218 64 240 64 c 2
 656 64 l 2
 678 64 697 72 713 88 c 0
 728 103 736 122 736 144 c 2
 736 271 l 2
 736 275 738 279 741 282 c 2
 773 314 l 2
 776 317 780 319 784 319 c 0
 786 319 788 318 790 318 c 0
 797 315 800 310 800 303 c 2
916 548 m 2
 509 140 l 2
 501 132 491 128 480 128 c 0
 469 128 460 132 452 140 c 2
 237 356 l 2
 229 364 225 373 225 384 c 0
 225 395 229 404 237 412 c 2
 292 468 l 2
 300 476 309 480 320 480 c 0
 331 480 341 476 349 468 c 2
 480 336 l 1
 804 660 l 2
 812 668 821 672 832 672 c 0
 843 672 853 668 861 660 c 2
 916 604 l 2
 924 596 928 587 928 576 c 0
 928 565 924 556 916 548 c 2
EndSplineSet
EndChar

StartChar: at
Encoding: 128 64 52
Width: 1024
Flags: HW
LayerCount: 2
Fore
SplineSet
614 446 m 0
 614 482 605 510 587 530 c 0
 569 550 545 560 514 560 c 0
 492 560 472 555 452 545 c 0
 431 535 413 521 396 503 c 0
 380 485 367 462 357 434 c 0
 347 407 342 377 342 344 c 0
 342 307 350 278 368 258 c 0
 386 238 411 228 444 228 c 0
 476 228 505 239 532 261 c 0
 558 283 579 311 593 344 c 0
 607 377 614 411 614 446 c 0
896 385 m 0
 896 348 890 315 878 286 c 0
 865 258 849 235 828 219 c 0
 808 203 786 190 762 182 c 0
 739 173 715 169 690 168 c 2
 682 168 l 1
 674 168 l 2
 642 168 619 176 603 194 c 0
 594 205 588 219 586 236 c 1
 569 214 547 195 521 180 c 0
 494 166 465 158 434 158 c 0
 380 158 339 174 309 206 c 0
 280 238 265 283 265 341 c 0
 265 393 276 442 298 486 c 0
 320 530 350 565 388 591 c 0
 425 617 466 630 510 630 c 0
 540 630 565 624 588 612 c 0
 611 600 628 584 641 562 c 1
 642 572 l 1
 648 600 l 2
 648 602 649 604 650 606 c 0
 652 608 653 609 655 609 c 2
 714 609 l 2
 716 609 718 607 720 604 c 0
 722 602 723 599 722 596 c 2
 662 288 l 2
 660 280 660 272 660 264 c 0
 660 252 662 243 666 238 c 0
 670 234 677 232 688 232 c 0
 697 232 707 233 716 235 c 0
 726 236 738 240 753 247 c 0
 768 253 780 262 792 272 c 0
 802 282 812 297 820 316 c 0
 828 336 832 359 832 385 c 0
 832 482 803 560 745 618 c 0
 687 676 609 705 512 705 c 0
 469 705 427 696 388 680 c 0
 348 662 314 640 286 611 c 0
 257 583 234 549 218 509 c 0
 200 470 192 428 192 385 c 0
 192 342 200 300 218 261 c 0
 234 221 257 187 286 159 c 0
 314 130 348 108 388 90 c 0
 427 74 469 65 512 65 c 0
 588 65 656 89 714 137 c 0
 718 140 722 141 726 141 c 0
 731 141 734 139 737 135 c 2
 758 110 l 2
 760 106 761 102 761 98 c 0
 760 94 758 90 755 88 c 0
 721 60 683 38 641 24 c 0
 599 8 556 1 512 1 c 0
 460 1 410 11 363 32 c 0
 316 52 275 79 240 114 c 0
 206 148 179 189 158 236 c 0
 138 283 128 333 128 385 c 0
 128 437 138 487 158 534 c 0
 179 581 206 622 240 656 c 0
 275 691 316 718 363 738 c 0
 410 759 460 769 512 769 c 0
 627 769 719 734 790 663 c 0
 861 592 896 500 896 385 c 0
EndSplineSet
EndChar

StartChar: asterisk
Encoding: 134 42 53
Width: 1024
Flags: HW
LayerCount: 2
Fore
SplineSet
744.1640625 356.8359375 m 4
 744.1640625 228.702148438 640.134765625 124.672851562 512 124.672851562 c 4
 383.865234375 124.672851562 279.8359375 228.702148438 279.8359375 356.8359375 c 4
 279.8359375 484.970703125 383.865234375 589 512 589 c 4
 640.134765625 589 744.1640625 484.970703125 744.1640625 356.8359375 c 4
EndSplineSet
EndChar

StartChar: one
Encoding: 49 49 54
Width: 1024
Flags: HW
LayerCount: 2
Fore
SplineSet
242.721679688 786 m 5
 414.291992188 786 l 5
 414.291992188 136.7734375 l 5
 781.278320312 136.7734375 l 5
 781.278320312 -0.126953125 l 5
 242.721679688 -0.126953125 l 5
 242.721679688 786 l 5
EndSplineSet
EndChar

StartChar: two
Encoding: 50 50 55
Width: 1024
Flags: HW
LayerCount: 2
Fore
SplineSet
203.463867188 786 m 5
 408.184570312 786 l 5
 511.708007812 441.115234375 l 5
 614.651367188 786 l 5
 820.536132812 786 l 5
 820.536132812 -0.126953125 l 5
 672.809570312 -0.126953125 l 5
 672.809570312 629.6171875 l 5
 580.918945312 285.78515625 l 5
 444.243164062 285.78515625 l 5
 351.188476562 629.6171875 l 5
 351.188476562 -0.126953125 l 5
 203.463867188 -0.126953125 l 5
 203.463867188 786 l 5
EndSplineSet
EndChar

StartChar: three
Encoding: 51 51 56
Width: 1024
Flags: H
LayerCount: 2
Fore
SplineSet
176.12890625 786 m 5
 353.515625 786 l 5
 511.708984375 535.892578125 l 5
 670.484375 786 l 5
 847.87109375 786 l 5
 601.275390625 398.9921875 l 5
 854.849609375 -0.126953125 l 5
 677.462890625 -0.126953125 l 5
 511.708984375 259.984375 l 5
 346.537109375 -0.126953125 l 5
 169.150390625 -0.126953125 l 5
 423.888671875 398.9921875 l 5
 176.12890625 786 l 5
EndSplineSet
EndChar

StartChar: four
Encoding: 52 52 57
Width: 1024
Flags: H
LayerCount: 2
Fore
SplineSet
391.900390625 801 m 5
 773.42578125 801 l 5
 773.42578125 267.0859375 l 6
 773.42578125 171.255859375 751.131835938 102.629882812 706.54296875 61.208984375 c 4
 662.341796875 20.138671875 589.25390625 -0.396484375 487.28125 -0.396484375 c 4
 450.447265625 -0.396484375 411.869140625 4.166015625 371.544921875 13.29296875 c 4
 331.609375 22.419921875 291.286132812 35.935546875 250.57421875 53.837890625 c 5
 250.57421875 233.9140625 l 5
 283.918945312 203.0234375 319.396484375 179.504882812 357.005859375 163.357421875 c 4
 395.002929688 147.209960938 433.1953125 139.13671875 471.580078125 139.13671875 c 4
 516.556640625 139.13671875 549.51171875 149.31640625 570.44921875 169.67578125 c 4
 591.38671875 190.03515625 601.85546875 222.505859375 601.85546875 267.0859375 c 6
 601.85546875 664.099609375 l 5
 391.900390625 664.099609375 l 5
 391.900390625 801 l 5
EndSplineSet
EndChar

StartChar: five
Encoding: 53 53 58
Width: 1024
Flags: H
LayerCount: 2
Fore
SplineSet
186.59765625 786 m 5
 359.33203125 786 l 5
 511.708984375 129.40234375 l 5
 664.66796875 786 l 5
 837.40234375 786 l 5
 630.935546875 -0.126953125 l 5
 393.064453125 -0.126953125 l 5
 186.59765625 786 l 5
EndSplineSet
EndChar

StartChar: six
Encoding: 54 54 59
Width: 1024
Flags: H
LayerCount: 2
Fore
SplineSet
509.963867188 816 m 4
 549.900390625 816 589.836914062 811.788085938 629.772460938 803.36328125 c 4
 669.708984375 795.290039062 709.258789062 783.178710938 748.418945312 767.03125 c 5
 748.418945312 615.388671875 l 5
 711.584960938 638.907226562 674.16796875 656.809570312 636.170898438 669.095703125 c 4
 598.172851562 681.381835938 560.5625 687.5234375 523.340820312 687.5234375 c 4
 481.853515625 687.5234375 450.060546875 679.9765625 427.959960938 664.8828125 c 4
 405.859375 649.7890625 394.809570312 628.19921875 394.809570312 600.1171875 c 4
 394.809570312 578.353515625 402.756835938 560.27734375 418.653320312 545.884765625 c 4
 434.9375 531.84375 468.670898438 516.221679688 519.850585938 499.021484375 c 6
 593.713867188 473.748046875 l 6
 663.504882812 450.580078125 714.879882812 419.865234375 747.836914062 381.603515625 c 4
 780.793945312 343.341796875 797.272460938 295.075195312 797.272460938 236.8046875 c 4
 797.272460938 157.47265625 771.294921875 98.1484375 719.338867188 58.833984375 c 4
 667.771484375 19.8701171875 589.642578125 0.38671875 484.956054688 0.38671875 c 4
 441.91796875 0.38671875 398.686523438 5.1259765625 355.260742188 14.603515625 c 4
 312.22265625 23.73046875 270.541992188 37.419921875 230.217773438 55.673828125 c 5
 230.217773438 216.26953125 l 5
 275.969726562 186.783203125 320.170898438 164.84375 362.821289062 150.451171875 c 4
 405.859375 136.059570312 448.315429688 128.86328125 490.190429688 128.86328125 c 4
 532.453125 128.86328125 565.215820312 137.463867188 588.479492188 154.6640625 c 4
 611.743164062 172.21484375 623.375976562 196.612304688 623.375976562 227.853515625 c 4
 623.375976562 251.372070312 615.62109375 271.907226562 600.112304688 289.458984375 c 4
 584.603515625 307.361328125 562.115234375 321.40234375 532.647460938 331.58203125 c 6
 448.315429688 360.541015625 l 6
 361.8515625 390.377929688 303.305664062 421.620117188 272.674804688 454.265625 c 4
 242.043945312 487.26171875 226.727539062 531.493164062 226.727539062 586.955078125 c 4
 226.727539062 658.213867188 251.930664062 714.203125 302.334960938 754.921875 c 4
 352.739257812 795.640625 421.94921875 816 509.963867188 816 c 4
EndSplineSet
EndChar

StartChar: seven
Encoding: 55 55 60
Width: 1024
Flags: H
LayerCount: 2
Fore
SplineSet
220.040039062 786 m 5
 403.823242188 786 l 6
 545.732421875 786 647.899414062 755.28515625 710.323242188 693.85546875 c 4
 772.748046875 632.77734375 803.959960938 532.733398438 803.959960938 393.7265625 c 4
 803.959960938 254.369140625 772.748046875 153.80078125 710.323242188 92.01953125 c 4
 647.899414062 30.58984375 545.732421875 -0.126953125 403.823242188 -0.126953125 c 6
 220.040039062 -0.126953125 l 5
 220.040039062 786 l 5
391.610351562 645.94140625 m 5
 391.610351562 139.93359375 l 5
 438.137695312 139.93359375 l 6
 505.602539062 139.93359375 553.681640625 159.064453125 582.374023438 197.326171875 c 4
 611.06640625 235.939453125 625.411132812 301.40625 625.411132812 393.7265625 c 4
 625.411132812 485.344726562 611.06640625 550.28515625 582.374023438 588.546875 c 4
 553.681640625 626.80859375 505.602539062 645.94140625 438.137695312 645.94140625 c 6
 391.610351562 645.94140625 l 5
EndSplineSet
EndChar
